<svg width="48" height="32" viewBox="0 0 48 32" fill="none" xmlns="http://www.w3.org/2000/svg">
<path d="M9.50271 4.57143H1.68606C0.787872 4.57143 -0.110314 5.30286 0.0110624 6.49143L3.79801 29.3257C3.79801 29.3257 8.28894 12.5029 9.16285 8.45714C9.42988 7.24571 10.6436 6.85714 11.5418 6.85714H24.0679C24.0679 6.85714 22.3686 2.10286 22.1987 1.57714C21.9074 0.571429 21.3733 0 20.3052 0H12.2701C11.3962 0 10.5708 0.525715 10.3281 1.46286C10.1096 2.37714 9.50271 4.57143 9.50271 4.57143ZM21.3491 4.57143H11.6389C11.6389 4.57143 12.6585 2.28571 13.7509 2.28571H18.9215C20.0867 2.28571 21.3491 4.57143 21.3491 4.57143ZM6.27409 30.2857C5.52156 31.36 4.42917 32 3.2154 32H41.4005C42.7113 32 43.6338 31.2914 43.9008 30.1029C44.9689 25.0971 47.9791 10.8114 47.9791 10.8114C48.149 9.66857 47.2508 9.14286 46.474 9.14286H38.6331V5.78286C38.6331 5.41714 38.0019 4.57143 37.0309 4.57143H27.9034C26.6411 4.57143 25.7914 5.89714 25.7914 5.89714L24.0679 9.14286H13.3625C12.5857 9.14286 11.8331 9.57714 11.6875 10.2857C11.6875 10.2857 7.82771 25.6 7.51213 27.04C7.34221 27.8857 6.97808 29.3029 6.27409 30.2857V30.2857ZM37.128 9.14286H26.4954C26.4954 9.14286 27.9034 6.85714 29.2385 6.85714H34.7976C36.5211 6.85714 37.128 9.14286 37.128 9.14286V9.14286Z" fill="#0FA958"/>
</svg>
