<svg width="43" height="48" viewBox="0 0 43 48" fill="none" xmlns="http://www.w3.org/2000/svg">
<path d="M42.5948 14.0753C42.5945 13.2703 42.4223 12.559 42.0742 11.9486C41.7322 11.3481 41.22 10.845 40.533 10.4471C34.8622 7.17732 29.1858 3.91748 23.5168 0.644315C21.9885 -0.238018 20.5067 -0.205685 18.9897 0.689315C16.7325 2.02032 5.43167 8.49482 2.06417 10.4453C0.677333 11.2483 0.0025 12.477 0.00216667 14.0738C0 20.6496 0.00216667 27.2255 0 33.8013C0 34.5886 0.165167 35.2863 0.498 35.8875C0.840167 36.506 1.3595 37.023 2.06233 37.4298C5.43 39.3803 16.7323 45.8543 18.989 47.1858C20.5067 48.0813 21.9885 48.1133 23.5173 47.2308C29.1865 43.9575 34.8632 40.6977 40.5348 37.4278C41.2377 37.0212 41.757 36.5038 42.0992 35.8858C42.4315 35.2845 42.597 34.587 42.597 33.7995C42.597 33.7995 42.597 20.6513 42.5948 14.0753Z" fill="#A179DC"/>
<path d="M21.3637 23.8735L0.498047 35.8875C0.840214 36.506 1.35955 37.023 2.06238 37.4299C5.43005 39.3804 16.7324 45.8544 18.989 47.1859C20.5067 48.0814 21.9885 48.1134 23.5174 47.2309C29.1865 43.9575 34.8632 40.6977 40.5349 37.4279C41.2377 37.0212 41.757 36.5039 42.0992 35.8859L21.3637 23.8735" fill="#280068"/>
<path d="M42.5944 14.0754C42.5941 13.2704 42.4219 12.5591 42.0738 11.9487L21.3633 23.8737L42.0988 35.8859C42.4311 35.2846 42.5963 34.5871 42.5966 33.7996C42.5966 33.7996 42.5966 20.6514 42.5944 14.0754" fill="#390091"/>
<path d="M33.6476 19.3823V21.628H35.8933V19.3823H37.0161V21.628H39.2618V22.7508H37.0161V24.9963H39.2618V26.1192H37.0161V28.3648H35.8933V26.1192H33.6476V28.3648H32.5248V26.1192H30.2793V24.9963H32.5248V22.7508H30.2793V21.628H32.5248V19.3823H33.6476ZM35.8933 22.7507H33.6476V24.9963H35.8933V22.7508V22.7507Z" fill="white"/>
<path d="M21.4097 8.10441C27.267 8.10441 32.3808 11.2854 35.12 16.0137L35.0933 15.9682L28.2017 19.9362C26.844 17.6374 24.355 16.0859 21.4995 16.0539L21.4095 16.0534C17.0553 16.0534 13.5253 19.5834 13.5253 23.9376C13.5239 25.31 13.8824 26.6587 14.5652 27.8492C15.9242 30.2217 18.479 31.8219 21.4097 31.8219C24.3585 31.8219 26.9278 30.2014 28.2798 27.8036L28.247 27.8611L35.1282 31.8474C32.419 36.5357 27.3752 39.7069 21.586 39.7701L21.4097 39.7711C15.5338 39.7711 10.4055 36.5704 7.67317 31.8171C6.33934 29.4966 5.57617 26.8064 5.57617 23.9376C5.57617 15.1932 12.6648 8.10425 21.4095 8.10425L21.4097 8.10441Z" fill="white"/>
</svg>
