<svg width="44" height="29" viewBox="0 0 44 29" fill="none" xmlns="http://www.w3.org/2000/svg">
<path d="M25.4423 8.87414H29.3845V13.4102H31.38C32.3122 13.4056 33.2375 13.2312 34.1202 12.894C34.5841 12.7212 35.0307 12.4943 35.4526 12.217C34.9126 11.3763 34.5921 10.3826 34.5272 9.3479C34.3617 7.83804 34.7072 6.31341 35.4951 5.077L35.9099 4.53783L36.4032 4.98508C37.7121 6.06498 38.5989 7.67271 38.8779 9.47165C40.4 8.94501 42.0454 9.11723 43.455 9.95071L43.997 10.3043L43.7126 10.93C43.136 12.0244 42.2832 12.9011 41.2625 13.4488C40.2419 13.9965 39.0996 14.1905 37.9808 14.0059C34.5665 23.5748 27.1392 28.1056 18.1172 28.1056C15.8704 28.256 13.6292 27.7213 11.6301 26.558C9.63093 25.3946 7.94794 23.6458 6.75867 21.4959L6.71939 21.4199L6.36429 20.6085C5.56116 18.5586 5.24757 16.3083 5.45454 14.0802L5.50953 13.4084H8.8767V8.87414H12.8205V4.43707H20.7081V0H25.4407V8.87414H25.4423Z" fill="#3A4E55"/>
<path d="M38.2198 10.5537C38.2469 9.57953 38.0572 8.61314 37.6682 7.74229C37.2791 6.87143 36.7029 6.12368 35.9918 5.56689C35.376 6.58406 35.0855 7.80641 35.168 9.03361C35.2505 10.2608 35.7011 11.4201 36.4459 12.3215C34.9817 13.5423 33.2009 14.1865 31.3786 14.1547H6.10211C5.88514 16.4241 6.24874 18.716 7.15013 20.7608L7.43767 21.353C7.61957 21.7003 7.81837 22.0361 8.03317 22.3588C9.07228 22.4342 10.0302 22.4608 10.907 22.4384C12.3277 22.4482 13.7415 22.2164 15.1006 21.7507C15.1767 21.7212 15.26 21.7268 15.3324 21.7665C15.4047 21.8061 15.4601 21.8764 15.4863 21.962C15.5126 22.0475 15.5076 22.1413 15.4723 22.2227C15.4371 22.3041 15.3746 22.3664 15.2986 22.3959C15.1572 22.4507 15.0095 22.5038 14.8571 22.5515C13.9113 22.8491 12.939 23.027 11.9581 23.0818C12.0273 23.0818 11.8858 23.0942 11.8858 23.0942L11.757 23.1066C10.7058 23.1585 9.65291 23.1549 8.60196 23.096L8.58624 23.1084C9.81177 24.5425 11.2961 25.6647 12.9393 26.3995C14.5825 27.1344 16.3465 27.4648 18.1127 27.3687C26.8488 27.3687 34.2587 23.0111 37.541 13.2266C39.8696 13.4953 42.1071 12.8271 43.1237 10.5926C42.3645 10.1594 41.5262 9.93047 40.675 9.92372C39.8238 9.91697 38.9828 10.1326 38.2182 10.5537" fill="#00AADA"/>
<path d="M38.2213 10.5537C38.2483 9.57953 38.0587 8.61314 37.6696 7.74229C37.2805 6.87143 36.7043 6.12368 35.9933 5.56689C35.3774 6.58406 35.087 7.80641 35.1695 9.03361C35.252 10.2608 35.7025 11.4201 36.4473 12.3215C34.9831 13.5423 33.2023 14.1865 31.3801 14.1547H7.60096C7.47131 15.7392 7.70785 17.3345 8.28762 18.7859C8.86739 20.2373 9.77073 21.4955 10.91 22.4384C12.3307 22.4482 13.7445 22.2164 15.1036 21.7507C15.1413 21.7361 15.1811 21.73 15.2209 21.7327C15.2607 21.7354 15.2996 21.7468 15.3354 21.7665C15.3712 21.7861 15.4032 21.8134 15.4297 21.847C15.4561 21.8805 15.4764 21.9196 15.4894 21.962C15.5024 22.0043 15.5078 22.0492 15.5054 22.0939C15.503 22.1386 15.4928 22.1824 15.4754 22.2227C15.4579 22.263 15.4336 22.299 15.4038 22.3288C15.374 22.3585 15.3393 22.3813 15.3016 22.3959C15.1602 22.4507 15.0125 22.5038 14.8601 22.5515C13.889 22.8577 12.8911 23.0438 11.8842 23.1066L11.8543 23.0677C14.8271 24.7842 19.1386 24.7771 24.0817 22.6417C29.7219 20.0779 34.6561 15.8754 38.38 10.4636L38.2228 10.5484" fill="#27B9EC"/>
<path d="M6.15039 17.1139C6.2993 18.3831 6.63769 19.6148 7.15127 20.7572L7.43881 21.3494C7.62071 21.6968 7.81951 22.0326 8.03431 22.3553C9.07342 22.4307 10.0314 22.4572 10.9081 22.4348C12.3288 22.4447 13.7426 22.2128 15.1017 21.7472C15.1394 21.7325 15.1792 21.7264 15.219 21.7291C15.2588 21.7318 15.2977 21.7433 15.3335 21.7629C15.3693 21.7825 15.4014 21.8099 15.4278 21.8434C15.4542 21.877 15.4745 21.9161 15.4875 21.9584C15.5005 22.0008 15.5059 22.0456 15.5035 22.0904C15.5011 22.1351 15.4909 22.1789 15.4735 22.2192C15.4561 22.2595 15.4317 22.2955 15.4019 22.3252C15.3721 22.3549 15.3374 22.3778 15.2997 22.3924C15.1583 22.4472 15.0106 22.5002 14.8582 22.548C13.8882 22.8496 12.892 23.0316 11.887 23.0907H11.7299C11.2726 23.119 10.7871 23.1366 10.2812 23.1366C9.72967 23.1366 9.16717 23.1243 8.55282 23.0907C9.78215 24.5259 11.2699 25.6489 12.9164 26.3846C14.5629 27.1202 16.3301 27.4515 18.0997 27.3563C25.5788 27.3563 32.0837 24.1619 35.8547 17.1033L6.15039 17.1139Z" fill="#088CB9"/>
<path d="M7.82812 17.1136C8.20922 19.2668 9.31262 21.1723 10.9093 22.4345C12.33 22.4444 13.7439 22.2125 15.103 21.7469C15.179 21.7173 15.2624 21.723 15.3347 21.7626C15.4071 21.8022 15.4624 21.8726 15.4887 21.9581C15.515 22.0437 15.5099 22.1375 15.4747 22.2189C15.4395 22.3003 15.377 22.3626 15.3009 22.3921C15.1595 22.4469 15.0118 22.4999 14.8594 22.5477C13.8845 22.8487 12.8836 23.0306 11.8741 23.0904C14.8469 24.8069 19.1458 24.7821 24.0873 22.6449C27.1368 21.2938 29.9857 19.428 32.5359 17.1118L7.82812 17.1136Z" fill="#039CC7"/>
<path d="M12.3972 9.93483H12.6674V13.1398H12.3972V9.93483ZM11.8787 9.93483H12.1599V13.1398H11.8787V9.93483ZM11.3602 9.93483H11.6414V13.1398H11.3617V9.93483H11.3602ZM10.8417 9.93483H11.1229V13.1398H10.8432V9.93483H10.8417ZM10.3232 9.93483H10.6044V13.1398H10.3247V9.93483H10.3232ZM9.81565 9.93483H10.0859V13.1398H9.81879V9.93483H9.81565ZM9.53125 9.61486H12.9487V13.4615H9.53282V9.61486H9.53125ZM16.3426 5.49776H16.6128V8.7027H16.3426V5.49776V5.49776ZM15.8241 5.49776H16.1053V8.7027H15.8241V5.49776ZM15.3056 5.49776H15.5868V8.7027H15.3056V5.49776ZM14.787 5.49776H15.0683V8.7027H14.787V5.49776ZM14.2685 5.49776H14.5482V8.7027H14.2685V5.49776ZM13.761 5.49776H14.0313V8.7027H13.761V5.49776ZM13.4766 5.17779H16.8956V9.02443H13.4782V5.17603L13.4766 5.17779Z" fill="#00ACD3"/>
<path d="M16.3425 9.93495H16.6128V13.1399H16.3425V9.93495ZM15.824 9.93495H16.1052V13.1399H15.824V9.93495ZM15.3055 9.93495H15.5867V13.1399H15.3055V9.93495ZM14.787 9.93495H15.0682V13.1399H14.787V9.93495ZM14.2685 9.93495H14.5481V13.1399H14.2685V9.93495ZM13.761 9.93495H14.0312V13.1399H13.761V9.93495ZM13.4766 9.61499H16.8956V13.4616H13.4781V9.61499H13.4766Z" fill="#26C2EE"/>
<path d="M20.2839 9.93495H20.5542V13.1399H20.2839V9.93495ZM19.7654 9.93495H20.0467V13.1399H19.767V9.93495H19.7654ZM19.2469 9.93495H19.5281V13.1399H19.2485V9.93495H19.2469ZM18.7284 9.93495H19.0128V13.1399H18.7315V9.93495H18.7284ZM18.2099 9.93495H18.4911V13.1399H18.2099V9.93495ZM17.7024 9.93495H17.9726V13.1399H17.7024V9.93495ZM17.418 9.61499H20.837V13.4616H17.4211V9.61499H17.418Z" fill="#00ACD3"/>
<path d="M20.2839 5.49776H20.5542V8.7027H20.2839V5.49776ZM19.7654 5.49776H20.0467V8.7027H19.767V5.49776H19.7654ZM19.2469 5.49776H19.5281V8.7027H19.2485V5.49776H19.2469ZM18.7284 5.49776H19.0128V8.7027H18.7315V5.49776H18.7284ZM18.2099 5.49776H18.4911V8.7027H18.2099V5.49776ZM17.7024 5.49776H17.9726V8.7027H17.7024V5.49776ZM17.418 5.17779H20.837V9.02443H17.4211V5.17603L17.418 5.17779ZM24.2293 9.93483H24.4995V13.1398H24.2293V9.93483ZM23.7108 9.93483H23.992V13.1398H23.7108V9.93483ZM23.1923 9.93483H23.4735V13.1398H23.1923V9.93483ZM22.6738 9.93483H22.955V13.1398H22.6738V9.93483ZM22.1553 9.93483H22.4365V13.1398H22.1553V9.93483V9.93483ZM21.6477 9.93483H21.918V13.1398H21.6477V9.93483ZM21.3696 9.61486H24.7886V13.4615H21.3696V9.61486V9.61486Z" fill="#26C2EE"/>
<path d="M24.2312 5.49776H24.5014V8.7027H24.2312V5.49776ZM23.7127 5.49776H23.9939V8.7027H23.7127V5.49776ZM23.1942 5.49776H23.4754V8.7027H23.1942V5.49776ZM22.6756 5.49776H22.9569V8.7027H22.6756V5.49776ZM22.1571 5.49776H22.4384V8.7027H22.1571V5.49776V5.49776ZM21.6496 5.49776H21.9199V8.7027H21.6496V5.49776ZM21.3652 5.17779H24.7843V9.02443H21.3715V5.17603L21.3652 5.17779Z" fill="#00ACD3"/>
<path d="M24.2307 1.05922H24.501V4.26417H24.2307V1.05922ZM23.7122 1.05922H23.9935V4.26417H23.7122V1.05922ZM23.1937 1.05922H23.475V4.26417H23.1937V1.05922ZM22.6752 1.05922H22.9565V4.26417H22.6752V1.05922ZM22.1567 1.05922H22.438V4.26417H22.1567V1.05922V1.05922ZM21.6492 1.05922H21.9195V4.26417H21.6492V1.05922ZM21.3711 0.739258H24.7901V4.5859H21.3711V0.739258V0.739258Z" fill="#26C2EE"/>
<path d="M28.1726 9.93495H28.4397V13.1399H28.1726V9.93495ZM27.6541 9.93495H27.9338V13.1399H27.6541V9.93495ZM27.1356 9.93495H27.4168V13.1399H27.1356V9.93495ZM26.6171 9.93495H26.8983V13.1399H26.6171V9.93495ZM26.0985 9.93495H26.3798V13.1399H26.0985V9.93495ZM25.591 9.93495H25.8613V13.1399H25.591V9.93495ZM25.3066 9.61499H28.7257V13.4616H25.3082V9.61499H25.3066Z" fill="#00ACD3"/>
<path d="M16.681 19.6965C16.8675 19.6965 17.0498 19.7587 17.2048 19.8753C17.3598 19.9918 17.4807 20.1575 17.552 20.3513C17.6234 20.5451 17.642 20.7584 17.6057 20.9641C17.5693 21.1699 17.4795 21.3588 17.3476 21.5072C17.2158 21.6555 17.0478 21.7565 16.8649 21.7975C16.6821 21.8384 16.4925 21.8174 16.3203 21.7371C16.148 21.6568 16.0008 21.5209 15.8972 21.3465C15.7936 21.172 15.7383 20.967 15.7383 20.7572C15.7383 20.4759 15.8376 20.2061 16.0144 20.0072C16.1912 19.8083 16.431 19.6965 16.681 19.6965" fill="#D5EEF2"/>
<path d="M16.6818 19.9969C16.7657 19.9968 16.8488 20.0142 16.927 20.0482C16.8903 20.0721 16.8591 20.1052 16.8357 20.145C16.8123 20.1847 16.7974 20.23 16.7921 20.2773C16.7869 20.3246 16.7914 20.3727 16.8053 20.4177C16.8193 20.4627 16.8423 20.5034 16.8726 20.5368C16.9028 20.5701 16.9396 20.5952 16.9798 20.6099C17.0201 20.6247 17.0629 20.6288 17.1048 20.6219C17.1468 20.6149 17.1867 20.5972 17.2215 20.5701C17.2564 20.5429 17.2851 20.5071 17.3056 20.4654C17.3612 20.6158 17.3723 20.7823 17.3374 20.9404C17.3025 21.0985 17.2233 21.2398 17.1116 21.3434C17 21.4471 16.8616 21.5076 16.717 21.5161C16.5725 21.5247 16.4293 21.4807 16.3086 21.3907C16.1879 21.3008 16.096 21.1696 16.0466 21.0164C15.9972 20.8633 15.9928 20.6964 16.0341 20.5403C16.0754 20.3842 16.1602 20.2471 16.276 20.1493C16.3917 20.0514 16.5324 19.998 16.6771 19.9969H16.6818ZM0.00157131 17.4973H43.8706C42.9153 17.2251 40.8491 16.8574 41.1885 15.4485C39.4522 17.7094 35.2633 17.0395 34.2059 15.9205C33.029 17.842 26.1753 17.1119 25.6976 15.6147C24.2222 17.5592 19.6483 17.5592 18.173 15.6147C17.7016 17.1119 10.8415 17.842 9.66469 15.9205C8.60725 17.0359 4.4199 17.7094 2.68211 15.4485C3.02306 16.8627 0.953742 17.2251 0 17.4973" fill="#3A4E55"/>
<path d="M19.1874 27.342C17.258 26.4168 15.711 24.7048 14.8571 22.5496C13.8367 22.8541 12.7898 23.0319 11.735 23.0799C11.2783 23.1082 10.798 23.1229 10.2942 23.1241C9.71388 23.1241 9.10214 23.1046 8.45898 23.0657C9.69994 24.5196 11.2046 25.6558 12.8707 26.397C14.5367 27.1382 16.3251 27.4671 18.1142 27.3614C18.4746 27.3614 18.8323 27.3537 19.1874 27.3384" fill="#C0DBE1"/>
<path d="M15.7238 24.2572C15.3813 23.7245 15.0905 23.152 14.8564 22.5496C13.8361 22.8541 12.7891 23.0319 11.7344 23.0799C12.9766 23.7806 14.3356 24.1805 15.7238 24.2537" fill="#D5EEF2"/>
</svg>
