<svg width="48" height="32" viewBox="0 0 48 32" fill="none" xmlns="http://www.w3.org/2000/svg">
<path d="M40.6656 13.9703C39.6168 6.10286 32.544 0 24 0C17.3856 0 11.64 3.68 9.0168 9.48343C3.8616 10.9531 0 15.5886 0 20.5714C0 26.6446 5.0136 31.5771 11.2992 31.9337V32H38.376V31.9931L38.4 32C43.6944 32 48 27.8994 48 22.8571C47.9972 20.808 47.2731 18.819 45.9435 17.208C44.6139 15.597 42.7556 14.457 40.6656 13.9703V13.9703ZM14.4 16H21.6V9.14286H26.4V16H33.6L24 27.4286L14.4 16Z" fill="#F24E1E"/>
</svg>
