<svg width="153" height="195" viewBox="0 0 153 195" fill="none" xmlns="http://www.w3.org/2000/svg">
<path d="M2.29629 4.58707C3.5645 4.58707 4.59258 3.56022 4.59258 2.29353C4.59258 1.02685 3.5645 0 2.29629 0C1.02808 0 0 1.02685 0 2.29353C0 3.56022 1.02808 4.58707 2.29629 4.58707Z" fill="#474747"/>
<path d="M29.2776 2.29354C29.2776 3.63143 28.3209 4.58707 26.9814 4.58707C25.6419 4.58707 24.6851 3.63143 24.6851 2.29354C24.6851 0.955641 25.6419 0 26.9814 0C28.1295 0 29.2776 0.955641 29.2776 2.29354Z" fill="#474747"/>
<path d="M53.7718 2.29354C53.7718 3.63143 52.815 4.58707 51.4755 4.58707C50.136 4.58707 49.1792 3.63143 49.1792 2.29354C49.1792 0.955641 50.136 0 51.4755 0C52.815 0 53.7718 0.955641 53.7718 2.29354Z" fill="#474747"/>
<path d="M76.1605 4.58707C77.4287 4.58707 78.4568 3.56022 78.4568 2.29354C78.4568 1.02685 77.4287 0 76.1605 0C74.8923 0 73.8643 1.02685 73.8643 2.29354C73.8643 3.56022 74.8923 4.58707 76.1605 4.58707Z" fill="#474747"/>
<path d="M100.654 4.58707C101.922 4.58707 102.951 3.56022 102.951 2.29354C102.951 1.02685 101.922 0 100.654 0C99.386 0 98.3579 1.02685 98.3579 2.29354C98.3579 3.56022 99.386 4.58707 100.654 4.58707Z" fill="white"/>
<path d="M127.636 2.29354C127.636 3.63143 126.679 4.58707 125.339 4.58707C124 4.58707 123.043 3.63143 123.043 2.29354C123.043 0.955641 124 0 125.339 0C126.487 0 127.636 0.955641 127.636 2.29354Z" fill="#474747"/>
<path d="M149.833 4.58707C151.102 4.58707 152.13 3.56022 152.13 2.29354C152.13 1.02685 151.102 0 149.833 0C148.565 0 147.537 1.02685 147.537 2.29354C147.537 3.56022 148.565 4.58707 149.833 4.58707Z" fill="#474747"/>
<path d="M4.59258 29.4332C4.59258 30.7711 3.63579 31.7267 2.29629 31.7267C0.956783 31.7267 0 30.7711 0 29.4332C0 28.0953 0.956783 27.1396 2.29629 27.1396C3.63579 27.1396 4.59258 28.0953 4.59258 29.4332Z" fill="white"/>
<path d="M29.2776 29.4332C29.2776 30.7711 28.3209 31.7267 26.9814 31.7267C25.6419 31.7267 24.6851 30.7711 24.6851 29.4332C24.6851 28.0953 25.6419 27.1396 26.9814 27.1396C28.1295 27.1396 29.2776 28.0953 29.2776 29.4332Z" fill="#474747"/>
<path d="M53.7718 29.4332C53.7718 30.7711 52.815 31.7267 51.4755 31.7267C50.136 31.7267 49.1792 30.7711 49.1792 29.4332C49.1792 28.0953 50.136 27.1396 51.4755 27.1396C52.815 27.1396 53.7718 28.0953 53.7718 29.4332Z" fill="#474747"/>
<path d="M78.4568 29.4332C78.4568 30.7711 77.5 31.7267 76.1605 31.7267C74.821 31.7267 73.8643 30.7711 73.8643 29.4332C73.8643 28.0953 74.821 27.1396 76.1605 27.1396C77.5 27.1396 78.4568 28.0953 78.4568 29.4332Z" fill="#474747"/>
<path d="M102.951 29.4332C102.951 30.7711 101.994 31.7267 100.654 31.7267C99.3147 31.7267 98.3579 30.7711 98.3579 29.4332C98.3579 28.0953 99.3147 27.1396 100.654 27.1396C101.994 27.1396 102.951 28.0953 102.951 29.4332Z" fill="#474747"/>
<path d="M127.636 29.4332C127.636 30.7711 126.679 31.7267 125.339 31.7267C124 31.7267 123.043 30.7711 123.043 29.4332C123.043 28.0953 124 27.1396 125.339 27.1396C126.487 27.1396 127.636 28.0953 127.636 29.4332Z" fill="#474747"/>
<path d="M152.13 29.4332C152.13 30.7711 151.173 31.7267 149.833 31.7267C148.494 31.7267 147.537 30.7711 147.537 29.4332C147.537 28.0953 148.494 27.1396 149.833 27.1396C151.173 27.1396 152.13 28.0953 152.13 29.4332Z" fill="#474747"/>
<path d="M2.29629 58.8673C3.5645 58.8673 4.59258 57.8405 4.59258 56.5738C4.59258 55.3071 3.5645 54.2803 2.29629 54.2803C1.02808 54.2803 0 55.3071 0 56.5738C0 57.8405 1.02808 58.8673 2.29629 58.8673Z" fill="#474747"/>
<path d="M29.2776 56.5738C29.2776 57.9117 28.3209 58.8673 26.9814 58.8673C25.6419 58.8673 24.6851 57.9117 24.6851 56.5738C24.6851 55.2359 25.6419 54.2803 26.9814 54.2803C28.1295 54.2803 29.2776 55.2359 29.2776 56.5738Z" fill="#474747"/>
<path d="M53.7718 56.5738C53.7718 57.9117 52.815 58.8673 51.4755 58.8673C50.136 58.8673 49.1792 57.9117 49.1792 56.5738C49.1792 55.2359 50.136 54.2803 51.4755 54.2803C52.815 54.2803 53.7718 55.2359 53.7718 56.5738Z" fill="white"/>
<path d="M76.1605 58.8673C77.4287 58.8673 78.4568 57.8405 78.4568 56.5738C78.4568 55.3071 77.4287 54.2803 76.1605 54.2803C74.8923 54.2803 73.8643 55.3071 73.8643 56.5738C73.8643 57.8405 74.8923 58.8673 76.1605 58.8673Z" fill="#474747"/>
<path d="M100.654 58.8673C101.922 58.8673 102.951 57.8405 102.951 56.5738C102.951 55.3071 101.922 54.2803 100.654 54.2803C99.386 54.2803 98.3579 55.3071 98.3579 56.5738C98.3579 57.8405 99.386 58.8673 100.654 58.8673Z" fill="#474747"/>
<path d="M127.636 56.5738C127.636 57.9117 126.679 58.8673 125.339 58.8673C124 58.8673 123.043 57.9117 123.043 56.5738C123.043 55.2359 124 54.2803 125.339 54.2803C126.487 54.2803 127.636 55.2359 127.636 56.5738Z" fill="#474747"/>
<path d="M149.833 58.8673C151.102 58.8673 152.13 57.8405 152.13 56.5738C152.13 55.3071 151.102 54.2803 149.833 54.2803C148.565 54.2803 147.537 55.3071 147.537 56.5738C147.537 57.8405 148.565 58.8673 149.833 58.8673Z" fill="#474747"/>
<path d="M4.59258 83.7135C4.59258 85.0514 3.63579 86.007 2.29629 86.007C0.956783 86.007 0 85.0514 0 83.7135C0 82.3756 0.956783 81.4199 2.29629 81.4199C3.63579 81.4199 4.59258 82.5667 4.59258 83.7135Z" fill="#474747"/>
<path d="M29.2776 83.7135C29.2776 85.0514 28.3209 86.007 26.9814 86.007C25.6419 86.007 24.6851 85.0514 24.6851 83.7135C24.6851 82.3756 25.6419 81.4199 26.9814 81.4199C28.1295 81.4199 29.2776 82.5667 29.2776 83.7135Z" fill="#474747"/>
<path d="M53.7718 83.7135C53.7718 85.0514 52.815 86.007 51.4755 86.007C50.136 86.007 49.1792 85.0514 49.1792 83.7135C49.1792 82.3756 50.136 81.4199 51.4755 81.4199C52.815 81.4199 53.7718 82.5667 53.7718 83.7135Z" fill="#474747"/>
<path d="M78.4568 83.7135C78.4568 85.0514 77.5 86.007 76.1605 86.007C74.821 86.007 73.8643 85.0514 73.8643 83.7135C73.8643 82.3756 74.821 81.4199 76.1605 81.4199C77.5 81.4199 78.4568 82.5667 78.4568 83.7135Z" fill="#474747"/>
<path d="M102.951 83.7135C102.951 85.0514 101.994 86.007 100.654 86.007C99.3147 86.007 98.3579 85.0514 98.3579 83.7135C98.3579 82.3756 99.3147 81.4199 100.654 81.4199C101.994 81.4199 102.951 82.5667 102.951 83.7135Z" fill="white"/>
<path d="M127.636 83.7135C127.636 85.0514 126.679 86.007 125.339 86.007C124 86.007 123.043 85.0514 123.043 83.7135C123.043 82.3756 124 81.4199 125.339 81.4199C126.487 81.4199 127.636 82.5667 127.636 83.7135Z" fill="#474747"/>
<path d="M152.13 83.7135C152.13 85.0514 151.173 86.007 149.833 86.007C148.494 86.007 147.537 85.0514 147.537 83.7135C147.537 82.3756 148.494 81.4199 149.833 81.4199C151.173 81.4199 152.13 82.5667 152.13 83.7135Z" fill="#474747"/>
<path d="M2.29629 113.148C3.5645 113.148 4.59258 112.121 4.59258 110.854C4.59258 109.587 3.5645 108.561 2.29629 108.561C1.02808 108.561 0 109.587 0 110.854C0 112.121 1.02808 113.148 2.29629 113.148Z" fill="#474747"/>
<path d="M29.2776 110.854C29.2776 112.192 28.3209 113.148 26.9814 113.148C25.6419 113.148 24.6851 112.192 24.6851 110.854C24.6851 109.516 25.6419 108.561 26.9814 108.561C28.1295 108.561 29.2776 109.707 29.2776 110.854Z" fill="#474747"/>
<path d="M53.7718 110.854C53.7718 112.192 52.815 113.148 51.4755 113.148C50.136 113.148 49.1792 112.192 49.1792 110.854C49.1792 109.516 50.136 108.561 51.4755 108.561C52.815 108.561 53.7718 109.707 53.7718 110.854Z" fill="#474747"/>
<path d="M76.1605 113.148C77.4287 113.148 78.4568 112.121 78.4568 110.854C78.4568 109.587 77.4287 108.561 76.1605 108.561C74.8923 108.561 73.8643 109.587 73.8643 110.854C73.8643 112.121 74.8923 113.148 76.1605 113.148Z" fill="#474747"/>
<path d="M100.654 113.148C101.922 113.148 102.951 112.121 102.951 110.854C102.951 109.587 101.922 108.561 100.654 108.561C99.386 108.561 98.3579 109.587 98.3579 110.854C98.3579 112.121 99.386 113.148 100.654 113.148Z" fill="#474747"/>
<path d="M127.636 110.854C127.636 112.192 126.679 113.148 125.339 113.148C124 113.148 123.043 112.192 123.043 110.854C123.043 109.516 124 108.561 125.339 108.561C126.487 108.561 127.636 109.707 127.636 110.854Z" fill="#474747"/>
<path d="M149.833 113.148C151.102 113.148 152.13 112.121 152.13 110.854C152.13 109.587 151.102 108.561 149.833 108.561C148.565 108.561 147.537 109.587 147.537 110.854C147.537 112.121 148.565 113.148 149.833 113.148Z" fill="#474747"/>
<path d="M2.29629 140.479C3.5645 140.479 4.59258 139.452 4.59258 138.185C4.59258 136.918 3.5645 135.892 2.29629 135.892C1.02808 135.892 0 136.918 0 138.185C0 139.452 1.02808 140.479 2.29629 140.479Z" fill="#474747"/>
<path d="M29.2776 138.185C29.2776 139.523 28.3209 140.479 26.9814 140.479C25.6419 140.479 24.6851 139.523 24.6851 138.185C24.6851 136.847 25.6419 135.892 26.9814 135.892C28.1295 135.892 29.2776 136.847 29.2776 138.185Z" fill="#474747"/>
<path d="M53.7718 138.185C53.7718 139.523 52.815 140.479 51.4755 140.479C50.136 140.479 49.1792 139.523 49.1792 138.185C49.1792 136.847 50.136 135.892 51.4755 135.892C52.815 135.892 53.7718 136.847 53.7718 138.185Z" fill="#474747"/>
<path d="M76.1605 140.479C77.4287 140.479 78.4568 139.452 78.4568 138.185C78.4568 136.918 77.4287 135.892 76.1605 135.892C74.8923 135.892 73.8643 136.918 73.8643 138.185C73.8643 139.452 74.8923 140.479 76.1605 140.479Z" fill="white"/>
<path d="M100.654 140.479C101.922 140.479 102.951 139.452 102.951 138.185C102.951 136.918 101.922 135.892 100.654 135.892C99.386 135.892 98.3579 136.918 98.3579 138.185C98.3579 139.452 99.386 140.479 100.654 140.479Z" fill="#474747"/>
<path d="M127.636 138.185C127.636 139.523 126.679 140.479 125.339 140.479C124 140.479 123.043 139.523 123.043 138.185C123.043 136.847 124 135.892 125.339 135.892C126.487 135.892 127.636 136.847 127.636 138.185Z" fill="#474747"/>
<path d="M149.833 140.479C151.102 140.479 152.13 139.452 152.13 138.185C152.13 136.918 151.102 135.892 149.833 135.892C148.565 135.892 147.537 136.918 147.537 138.185C147.537 139.452 148.565 140.479 149.833 140.479Z" fill="#474747"/>
<path d="M4.59258 165.326C4.59258 166.664 3.63579 167.619 2.29629 167.619C0.956783 167.619 0 166.664 0 165.326C0 163.988 0.956783 163.032 2.29629 163.032C3.63579 163.032 4.59258 163.988 4.59258 165.326Z" fill="#474747"/>
<path d="M29.2776 165.326C29.2776 166.664 28.3209 167.619 26.9814 167.619C25.6419 167.619 24.6851 166.664 24.6851 165.326C24.6851 163.988 25.6419 163.032 26.9814 163.032C28.1295 163.032 29.2776 163.988 29.2776 165.326Z" fill="#474747"/>
<path d="M53.7718 165.326C53.7718 166.664 52.815 167.619 51.4755 167.619C50.136 167.619 49.1792 166.664 49.1792 165.326C49.1792 163.988 50.136 163.032 51.4755 163.032C52.815 163.032 53.7718 163.988 53.7718 165.326Z" fill="#474747"/>
<path d="M78.4568 165.326C78.4568 166.664 77.5 167.619 76.1605 167.619C74.821 167.619 73.8643 166.664 73.8643 165.326C73.8643 163.988 74.821 163.032 76.1605 163.032C77.5 163.032 78.4568 163.988 78.4568 165.326Z" fill="#474747"/>
<path d="M102.951 165.326C102.951 166.664 101.994 167.619 100.654 167.619C99.3147 167.619 98.3579 166.664 98.3579 165.326C98.3579 163.988 99.3147 163.032 100.654 163.032C101.994 163.032 102.951 163.988 102.951 165.326Z" fill="#474747"/>
<path d="M127.636 165.326C127.636 166.664 126.679 167.619 125.339 167.619C124 167.619 123.043 166.664 123.043 165.326C123.043 163.988 124 163.032 125.339 163.032C126.487 163.032 127.636 163.988 127.636 165.326Z" fill="white"/>
<path d="M152.13 165.326C152.13 166.664 151.173 167.619 149.833 167.619C148.494 167.619 147.537 166.664 147.537 165.326C147.537 163.988 148.494 163.032 149.833 163.032C151.173 163.032 152.13 163.988 152.13 165.326Z" fill="#474747"/>
<path d="M2.29629 194.759C3.5645 194.759 4.59258 193.732 4.59258 192.465C4.59258 191.199 3.5645 190.172 2.29629 190.172C1.02808 190.172 0 191.199 0 192.465C0 193.732 1.02808 194.759 2.29629 194.759Z" fill="#474747"/>
<path d="M29.2776 192.465C29.2776 193.803 28.3209 194.759 26.9814 194.759C25.6419 194.759 24.6851 193.803 24.6851 192.465C24.6851 191.128 25.6419 190.172 26.9814 190.172C28.1295 190.172 29.2776 191.128 29.2776 192.465Z" fill="white"/>
<path d="M53.7718 192.465C53.7718 193.803 52.815 194.759 51.4755 194.759C50.136 194.759 49.1792 193.803 49.1792 192.465C49.1792 191.128 50.136 190.172 51.4755 190.172C52.815 190.172 53.7718 191.128 53.7718 192.465Z" fill="#474747"/>
<path d="M76.1605 194.759C77.4287 194.759 78.4568 193.732 78.4568 192.465C78.4568 191.199 77.4287 190.172 76.1605 190.172C74.8923 190.172 73.8643 191.199 73.8643 192.465C73.8643 193.732 74.8923 194.759 76.1605 194.759Z" fill="#474747"/>
<path d="M100.654 194.759C101.922 194.759 102.951 193.732 102.951 192.465C102.951 191.199 101.922 190.172 100.654 190.172C99.386 190.172 98.3579 191.199 98.3579 192.465C98.3579 193.732 99.386 194.759 100.654 194.759Z" fill="#474747"/>
<path d="M127.636 192.465C127.636 193.803 126.679 194.759 125.339 194.759C124 194.759 123.043 193.803 123.043 192.465C123.043 191.128 124 190.172 125.339 190.172C126.487 190.172 127.636 191.128 127.636 192.465Z" fill="#474747"/>
<path d="M149.833 194.759C151.102 194.759 152.13 193.732 152.13 192.465C152.13 191.199 151.102 190.172 149.833 190.172C148.565 190.172 147.537 191.199 147.537 192.465C147.537 193.732 148.565 194.759 149.833 194.759Z" fill="#474747"/>
</svg>
