<svg width="198" height="155" viewBox="0 0 198 155" fill="none" xmlns="http://www.w3.org/2000/svg">
<path d="M5.30242 149.911C5.31924 148.643 4.30611 147.602 3.03954 147.585C1.77297 147.568 0.732573 148.582 0.715755 149.85C0.698937 151.118 1.71206 152.16 2.97863 152.177C4.24521 152.194 5.2856 151.179 5.30242 149.911Z" fill="#474747"/>
<path d="M3.36694 122.902C4.70471 122.92 5.64758 123.889 5.62982 125.229C5.61205 126.568 4.64381 127.512 3.30603 127.494C1.96825 127.477 1.02538 126.507 1.04315 125.168C1.05837 124.02 2.02916 122.884 3.36694 122.902Z" fill="#474747"/>
<path d="M3.69164 98.4099C5.02942 98.4277 5.97229 99.397 5.95453 100.736C5.93676 102.076 4.96852 103.02 3.63074 103.002C2.29296 102.984 1.35009 102.015 1.36785 100.676C1.38562 99.3362 2.35386 98.3922 3.69164 98.4099Z" fill="#474747"/>
<path d="M6.28192 76.0533C6.29874 74.7852 5.28561 73.7436 4.01904 73.7268C2.75246 73.71 1.71207 74.7244 1.69525 75.9925C1.67843 77.2606 2.69156 78.3022 3.95813 78.319C5.2247 78.3358 6.2651 77.3214 6.28192 76.0533Z" fill="#474747"/>
<path d="M6.60687 51.5621C6.62369 50.294 5.61056 49.2524 4.34399 49.2356C3.07741 49.2188 2.03702 50.2332 2.0202 51.5013C2.00338 52.7694 3.01651 53.811 4.28308 53.8278C5.54966 53.8446 6.59005 52.8302 6.60687 51.5621Z" fill="white"/>
<path d="M4.67138 24.5525C6.00916 24.5702 6.95203 25.5396 6.93426 26.879C6.9165 28.2184 5.94825 29.1624 4.61047 29.1447C3.2727 29.1269 2.32983 28.1575 2.34759 26.8181C2.36282 25.6701 3.3336 24.5347 4.67138 24.5525Z" fill="#474747"/>
<path d="M7.25897 2.38727C7.27579 1.11917 6.26266 0.0775556 4.99609 0.0607574C3.72951 0.0439592 2.68912 1.05833 2.6723 2.32644C2.65548 3.59454 3.66861 4.63618 4.93518 4.65297C6.20175 4.66977 7.24215 3.65537 7.25897 2.38727Z" fill="#474747"/>
<path d="M30.1767 147.945C31.5145 147.963 32.4574 148.932 32.4396 150.272C32.4219 151.611 31.4536 152.555 30.1158 152.537C28.7781 152.52 27.8352 151.55 27.853 150.211C27.8707 148.871 28.839 147.927 30.1767 147.945Z" fill="white"/>
<path d="M30.5041 123.261C31.8419 123.279 32.7848 124.249 32.767 125.588C32.7492 126.927 31.781 127.871 30.4432 127.854C29.1054 127.836 28.1626 126.867 28.1804 125.527C28.1956 124.379 29.1664 123.244 30.5041 123.261Z" fill="#474747"/>
<path d="M30.8291 98.7698C32.1669 98.7875 33.1097 99.7569 33.092 101.096C33.0742 102.436 32.1059 103.38 30.7682 103.362C29.4304 103.344 28.4875 102.375 28.5053 101.035C28.5231 99.6961 29.4913 98.752 30.8291 98.7698Z" fill="#474747"/>
<path d="M31.1562 74.0872C32.494 74.1049 33.4369 75.0743 33.4191 76.4137C33.4013 77.7531 32.4331 78.6971 31.0953 78.6793C29.7575 78.6616 28.8147 77.6922 28.8325 76.3528C28.8502 75.0135 29.8185 74.0694 31.1562 74.0872Z" fill="#474747"/>
<path d="M31.4812 49.5954C32.819 49.6132 33.7618 50.5826 33.7441 51.922C33.7263 53.2614 32.758 54.2054 31.4203 54.1876C30.0825 54.1699 29.1396 53.2005 29.1574 51.8611C29.1752 50.5218 30.1434 49.5777 31.4812 49.5954Z" fill="#474747"/>
<path d="M31.8086 24.9123C33.1463 24.9301 34.0892 25.8994 34.0715 27.2388C34.0537 28.5782 33.0854 29.5223 31.7477 29.5045C30.4099 29.4868 29.467 28.5174 29.4848 27.178C29.5 26.03 30.4708 24.8946 31.8086 24.9123Z" fill="#474747"/>
<path d="M32.1333 0.42062C33.4711 0.438363 34.4139 1.40774 34.3962 2.74713C34.3784 4.08652 33.4101 5.03058 32.0724 5.01284C30.7346 4.9951 29.7917 4.02569 29.8095 2.6863C29.8273 1.34691 30.7955 0.402878 32.1333 0.42062Z" fill="#474747"/>
<path d="M59.5778 150.631C59.5946 149.363 58.5815 148.321 57.3149 148.304C56.0484 148.288 55.008 149.302 54.9911 150.57C54.9743 151.838 55.9875 152.88 57.254 152.897C58.5206 152.913 59.561 151.899 59.5778 150.631Z" fill="#474747"/>
<path d="M57.6423 123.622C58.9801 123.64 59.923 124.609 59.9052 125.948C59.8874 127.288 58.9192 128.232 57.5814 128.214C56.2436 128.196 55.3008 127.227 55.3185 125.887C55.3338 124.739 56.3046 123.604 57.6423 123.622Z" fill="#474747"/>
<path d="M57.9673 99.1296C59.3051 99.1474 60.2479 100.117 60.2302 101.456C60.2124 102.796 59.2442 103.74 57.9064 103.722C56.5686 103.704 55.6257 102.735 55.6435 101.395C55.6613 100.056 56.6295 99.1119 57.9673 99.1296Z" fill="white"/>
<path d="M60.5575 76.7735C60.5744 75.5054 59.5612 74.4638 58.2947 74.447C57.0281 74.4302 55.9877 75.4446 55.9709 76.7127C55.9541 77.9808 56.9672 79.0224 58.2338 79.0392C59.5003 79.056 60.5407 78.0416 60.5575 76.7735Z" fill="#474747"/>
<path d="M60.8823 52.2818C60.8991 51.0137 59.886 49.9721 58.6194 49.9553C57.3528 49.9385 56.3124 50.9529 56.2956 52.221C56.2788 53.4891 57.2919 54.5307 58.5585 54.5475C59.825 54.5643 60.8654 53.5499 60.8823 52.2818Z" fill="#474747"/>
<path d="M58.9468 25.2722C60.2845 25.2899 61.2274 26.2593 61.2096 27.5987C61.1919 28.9381 60.2236 29.8821 58.8859 29.8644C57.5481 29.8467 56.6052 28.8773 56.623 27.5379C56.6382 26.3898 57.609 25.2544 58.9468 25.2722Z" fill="#474747"/>
<path d="M61.5346 3.10699C61.5514 1.83889 60.5383 0.797282 59.2717 0.780484C58.0052 0.763686 56.9648 1.77806 56.9479 3.04616C56.9311 4.31426 57.9442 5.3559 59.2108 5.3727C60.4774 5.3895 61.5178 4.37509 61.5346 3.10699Z" fill="#474747"/>
<path d="M84.4524 148.665C85.7902 148.683 86.733 149.652 86.7153 150.991C86.6975 152.331 85.7293 153.275 84.3915 153.257C83.0537 153.239 82.1108 152.27 82.1286 150.93C82.1464 149.591 83.3057 148.65 84.4524 148.665Z" fill="#474747"/>
<path d="M84.7798 123.981C86.1176 123.999 87.0604 124.968 87.0427 126.308C87.0249 127.647 86.0566 128.591 84.7189 128.573C83.3811 128.556 82.4382 127.586 82.456 126.247C82.4712 125.099 83.6331 123.966 84.7798 123.981Z" fill="#474747"/>
<path d="M85.1045 99.4895C86.4423 99.5072 87.3851 100.477 87.3674 101.816C87.3496 103.155 86.3814 104.099 85.0436 104.082C83.7058 104.064 82.7629 103.095 82.7807 101.755C82.7985 100.416 83.9578 99.4743 85.1045 99.4895Z" fill="#474747"/>
<path d="M85.4319 74.8069C86.7697 74.8246 87.7125 75.794 87.6948 77.1334C87.677 78.4728 86.7087 79.4168 85.371 79.3991C84.0332 79.3813 83.0903 78.412 83.1081 77.0726C83.1259 75.7332 84.2852 74.7917 85.4319 74.8069Z" fill="#474747"/>
<path d="M85.7566 50.3152C87.0944 50.3329 88.0372 51.3023 88.0195 52.6417C88.0017 53.9811 87.0335 54.9251 85.6957 54.9074C84.3579 54.8896 83.415 53.9203 83.4328 52.5809C83.4506 51.2415 84.6099 50.3 85.7566 50.3152Z" fill="white"/>
<path d="M86.084 25.632C87.4218 25.6498 88.3646 26.6192 88.3469 27.9586C88.3291 29.298 87.3608 30.242 86.0231 30.2243C84.6853 30.2065 83.7424 29.2371 83.7602 27.8977C83.7754 26.7497 84.9373 25.6168 86.084 25.632Z" fill="#474747"/>
<path d="M86.4089 1.14035C87.7467 1.15809 88.6896 2.12747 88.6718 3.46686C88.6541 4.80625 87.6858 5.75031 86.348 5.73256C85.0102 5.71482 84.0674 4.74542 84.0851 3.40603C84.1029 2.06663 85.2623 1.12514 86.4089 1.14035Z" fill="#474747"/>
<path d="M113.853 151.351C113.87 150.083 112.857 149.041 111.591 149.024C110.324 149.007 109.284 150.022 109.267 151.29C109.25 152.558 110.263 153.6 111.53 153.616C112.796 153.633 113.837 152.619 113.853 151.351Z" fill="#474747"/>
<path d="M111.918 124.342C113.256 124.359 114.199 125.329 114.181 126.668C114.163 128.007 113.195 128.951 111.857 128.934C110.519 128.916 109.576 127.947 109.594 126.607C109.609 125.459 110.771 124.326 111.918 124.342Z" fill="#474747"/>
<path d="M112.243 99.8494C113.58 99.8671 114.523 100.836 114.506 102.176C114.488 103.515 113.52 104.459 112.182 104.442C110.844 104.424 109.901 103.454 109.919 102.115C109.937 100.776 111.096 99.8342 112.243 99.8494Z" fill="#474747"/>
<path d="M114.833 77.4933C114.85 76.2252 113.837 75.1836 112.57 75.1668C111.303 75.15 110.263 76.1643 110.246 77.4324C110.229 78.7005 111.243 79.7421 112.509 79.7589C113.776 79.7757 114.816 78.7614 114.833 77.4933Z" fill="#474747"/>
<path d="M115.158 53.0016C115.174 51.7335 114.161 50.6918 112.895 50.675C111.628 50.6582 110.588 51.6726 110.571 52.9407C110.554 54.2088 111.567 55.2504 112.834 55.2672C114.1 55.284 115.141 54.2697 115.158 53.0016Z" fill="#474747"/>
<path d="M113.222 25.9924C114.56 26.0101 115.503 26.9795 115.485 28.3189C115.467 29.6583 114.499 30.6024 113.161 30.5846C111.823 30.5669 110.881 29.5975 110.898 28.2581C110.914 27.11 112.075 25.9772 113.222 25.9924Z" fill="#474747"/>
<path d="M115.81 3.82672C115.827 2.55862 114.814 1.51701 113.547 1.50021C112.281 1.48341 111.24 2.49779 111.223 3.76589C111.207 5.03399 112.22 6.07563 113.486 6.09243C114.753 6.10923 115.793 5.09482 115.81 3.82672Z" fill="#474747"/>
<path d="M141.182 151.713C141.199 150.445 140.186 149.403 138.919 149.386C137.653 149.37 136.612 150.384 136.595 151.652C136.579 152.92 137.592 153.962 138.858 153.979C140.125 153.995 141.165 152.981 141.182 151.713Z" fill="#474747"/>
<path d="M139.247 124.704C140.584 124.722 141.527 125.691 141.509 127.03C141.492 128.37 140.523 129.314 139.186 129.296C137.848 129.278 136.905 128.309 136.923 126.97C136.938 125.821 137.909 124.686 139.247 124.704Z" fill="#474747"/>
<path d="M139.571 100.212C140.909 100.23 141.852 101.199 141.834 102.539C141.816 103.878 140.848 104.822 139.51 104.804C138.173 104.787 137.23 103.817 137.247 102.478C137.265 101.138 138.233 100.194 139.571 100.212Z" fill="#474747"/>
<path d="M142.162 77.8556C142.178 76.5875 141.165 75.5459 139.899 75.5291C138.632 75.5123 137.592 76.5266 137.575 77.7947C137.558 79.0628 138.571 80.1044 139.838 80.1212C141.104 80.138 142.145 79.1237 142.162 77.8556Z" fill="white"/>
<path d="M142.486 53.3639C142.503 52.0958 141.49 51.0541 140.224 51.0373C138.957 51.0205 137.917 52.0349 137.9 53.303C137.883 54.5711 138.896 55.6127 140.163 55.6295C141.429 55.6463 142.47 54.632 142.486 53.3639Z" fill="#474747"/>
<path d="M140.551 26.3547C141.889 26.3724 142.832 27.3418 142.814 28.6812C142.796 30.0206 141.828 30.9647 140.49 30.9469C139.152 30.9292 138.209 29.9598 138.227 28.6204C138.242 27.4723 139.213 26.337 140.551 26.3547Z" fill="#474747"/>
<path d="M143.139 4.18902C143.155 2.92092 142.142 1.87931 140.876 1.86251C139.609 1.84572 138.569 2.86009 138.552 4.12819C138.535 5.39629 139.548 6.43793 140.815 6.45473C142.081 6.47153 143.122 5.45713 143.139 4.18902Z" fill="#474747"/>
<path d="M166.057 149.747C167.395 149.765 168.338 150.734 168.32 152.073C168.302 153.413 167.334 154.357 165.996 154.339C164.659 154.321 163.716 153.352 163.734 152.013C163.751 150.673 164.72 149.729 166.057 149.747Z" fill="#474747"/>
<path d="M166.385 125.064C167.723 125.082 168.665 126.051 168.648 127.391C168.63 128.73 167.662 129.674 166.324 129.656C164.986 129.639 164.043 128.669 164.061 127.33C164.076 126.182 165.047 125.046 166.385 125.064Z" fill="#474747"/>
<path d="M166.71 100.572C168.047 100.59 168.99 101.559 168.973 102.899C168.955 104.238 167.987 105.182 166.649 105.164C165.311 105.146 164.368 104.177 164.386 102.838C164.404 101.498 165.372 100.554 166.71 100.572Z" fill="#474747"/>
<path d="M167.037 75.8889C168.375 75.9067 169.318 76.8761 169.3 78.2154C169.282 79.5548 168.314 80.4988 166.976 80.4811C165.638 80.4634 164.696 79.494 164.713 78.1546C164.731 76.8152 165.699 75.8712 167.037 75.8889Z" fill="#474747"/>
<path d="M167.362 51.3972C168.7 51.4149 169.642 52.3843 169.625 53.7237C169.607 55.0631 168.639 56.0071 167.301 55.9894C165.963 55.9717 165.02 55.0023 165.038 53.6629C165.056 52.3235 166.024 51.3795 167.362 51.3972Z" fill="#474747"/>
<path d="M167.689 26.7146C169.027 26.7323 169.97 27.7017 169.952 29.0411C169.934 30.3805 168.966 31.3245 167.628 31.3068C166.291 31.289 165.348 30.3197 165.365 28.9803C165.381 27.8322 166.351 26.6968 167.689 26.7146Z" fill="white"/>
<path d="M168.014 2.22238C169.352 2.24012 170.295 3.2095 170.277 4.54889C170.259 5.88828 169.291 6.83234 167.953 6.8146C166.615 6.79685 165.672 5.82745 165.69 4.48806C165.708 3.14867 166.676 2.20464 168.014 2.22238Z" fill="#474747"/>
<path d="M195.458 152.434C195.474 151.166 194.461 150.124 193.195 150.107C191.928 150.09 190.888 151.105 190.871 152.373C190.854 153.641 191.867 154.683 193.134 154.699C194.4 154.716 195.441 153.702 195.458 152.434Z" fill="#474747"/>
<path d="M193.522 125.424C194.86 125.441 195.803 126.411 195.785 127.75C195.767 129.089 194.799 130.034 193.461 130.016C192.123 129.998 191.18 129.029 191.198 127.689C191.213 126.541 192.184 125.406 193.522 125.424Z" fill="white"/>
<path d="M193.847 100.932C195.185 100.95 196.128 101.919 196.11 103.258C196.092 104.598 195.124 105.542 193.786 105.524C192.448 105.506 191.505 104.537 191.523 103.198C191.541 101.858 192.509 100.914 193.847 100.932Z" fill="#474747"/>
<path d="M196.437 78.5753C196.454 77.3072 195.441 76.2656 194.174 76.2488C192.908 76.232 191.867 77.2464 191.851 78.5145C191.834 79.7826 192.847 80.8242 194.113 80.841C195.38 80.8578 196.42 79.8434 196.437 78.5753Z" fill="#474747"/>
<path d="M196.762 54.0841C196.779 52.816 195.766 51.7743 194.499 51.7575C193.232 51.7408 192.192 52.7552 192.175 54.0232C192.158 55.2913 193.172 56.333 194.438 56.3498C195.705 56.3665 196.745 55.3522 196.762 54.0841Z" fill="#474747"/>
<path d="M194.826 27.0744C196.164 27.0922 197.107 28.0616 197.089 29.401C197.071 30.7404 196.103 31.6844 194.765 31.6666C193.428 31.6489 192.485 30.6795 192.503 29.3401C192.518 28.1921 193.489 27.0567 194.826 27.0744Z" fill="#474747"/>
<path d="M197.414 4.90924C197.431 3.64114 196.418 2.59953 195.151 2.58273C193.885 2.56593 192.844 3.58031 192.828 4.84841C192.811 6.11651 193.824 7.15815 195.09 7.17495C196.357 7.19174 197.397 6.17734 197.414 4.90924Z" fill="#474747"/>
</svg>
