<svg width="48" height="38" viewBox="0 0 48 38" fill="none" xmlns="http://www.w3.org/2000/svg">
<path d="M41.2502 21.1748L46.8752 26.3805L21.9002 37.5658C21.9002 37.5658 18.6002 38.9728 17.0252 36.7217C10.8752 27.7171 41.2502 21.1748 41.2502 21.1748Z" fill="#256382"/>
<path d="M21.3 31.0231C21.3 31.0231 16.5 32.5708 17.4 35.5957C18.3 38.691 22.125 36.7916 22.125 36.7916L45.825 26.4505C45.825 26.4505 44.475 23.1442 46.875 20.9634L21.3 31.0231Z" fill="#D9E3E8"/>
<path d="M25.2749 0L47.9999 20.7526L21.1499 30.6013L3.8999 5.41677L25.2749 0Z" fill="#42ADE2"/>
<path d="M25.9502 4.71338L30.3002 9.07494L14.0252 14.5621L10.2002 9.00459L25.9502 4.71338Z" fill="white"/>
<path d="M45.7499 23.2147L29.9249 29.2646L45.5249 22.5815L45.7499 23.2147ZM45.5249 25.0437L28.6499 31.5861L45.2249 24.3402L45.5249 25.0437ZM45.6749 26.0286L24.1499 34.822L45.3749 25.3955L45.6749 26.0286Z" fill="#94989B"/>
<path d="M17.025 36.7213C14.4 31.5859 21.15 30.6714 21.15 30.6714L3.9 5.41659C3.9 5.41659 0 5.34625 0 9.14502C0 10.6927 0.750001 11.8886 0.750001 11.8886L17.025 36.7213" fill="#428BC1"/>
</svg>
