<svg width="31" height="42" viewBox="0 0 31 42" fill="none" xmlns="http://www.w3.org/2000/svg">
<path fill-rule="evenodd" clip-rule="evenodd" d="M0.415722 22.7249C0.475722 23.9639 1.71322 23.3909 2.27422 23.0039C2.80672 22.6364 2.96272 22.9424 3.00922 22.2164C3.05748 21.7405 3.07702 21.2621 3.06772 20.7839C2.24132 20.701 1.41227 20.9136 0.727723 21.3839C0.387223 21.6314 -0.248778 22.4189 0.415722 22.7339" fill="#F6D2A2"/>
<path d="M1.059 23.5981C0.93667 23.6003 0.815489 23.5741 0.705 23.5216C0.578758 23.4486 0.474522 23.3429 0.403253 23.2157C0.331983 23.0884 0.296315 22.9444 0.3 22.7986C0.218148 22.759 0.147686 22.6993 0.0952141 22.625C0.0427427 22.5508 0.00998126 22.4644 0 22.3741C0.022386 22.1562 0.0919459 21.9457 0.203848 21.7574C0.31575 21.5691 0.467311 21.4074 0.648 21.2836C1.35473 20.795 2.21291 20.5752 3.0675 20.6641L3.1695 20.6731V20.7751C3.18267 21.1489 3.17114 21.5232 3.135 21.8956C3.12625 22.0045 3.11825 22.1135 3.111 22.2226C3.078 22.7371 2.982 22.8151 2.7165 22.9066C2.57705 22.9511 2.44508 23.0163 2.325 23.1001C1.95281 23.3721 1.51679 23.5436 1.059 23.5981V23.5981ZM2.724 20.8861C2.03507 20.8769 1.36054 21.0835 0.795 21.4771C0.552 21.6541 0.2145 22.0681 0.243 22.3531C0.251505 22.4134 0.276633 22.4702 0.315574 22.5171C0.354516 22.564 0.405734 22.5991 0.4635 22.6186L0.528 22.6486V22.7191C0.543 23.0281 0.636 23.2261 0.8055 23.3101C1.1325 23.4721 1.7415 23.2231 2.202 22.9066C2.34012 22.8106 2.49179 22.7358 2.652 22.6846C2.826 22.6246 2.862 22.6111 2.8875 22.2076C2.8875 22.0981 2.9025 21.9886 2.9115 21.8776C2.94212 21.5495 2.95514 21.22 2.9505 20.8906C2.8735 20.8876 2.7985 20.8861 2.7255 20.8861H2.724Z" fill="black"/>
<path fill-rule="evenodd" clip-rule="evenodd" d="M3.27704 7.96346C-1.46746 6.62996 2.06054 0.599958 5.86904 3.07796L3.27704 7.96346Z" fill="#6AD7E5"/>
<path d="M3.33583 8.09991L3.24433 8.07441C2.67331 7.9773 2.14463 7.71087 1.72686 7.30968C1.30908 6.90849 1.02147 6.39103 0.901325 5.82441C0.844987 5.24223 0.952323 4.65589 1.21124 4.13142C1.47017 3.60695 1.87039 3.1652 2.36683 2.85591C2.90503 2.5162 3.53294 2.34614 4.16902 2.36781C4.8051 2.38947 5.41998 2.60187 5.93383 2.97741L6.02382 3.03591L3.33583 8.09991ZM4.00933 2.60091C3.47141 2.60107 2.94511 2.7574 2.49433 3.05091C2.03558 3.33498 1.66519 3.74142 1.42484 4.2245C1.18449 4.70759 1.0837 5.24817 1.13383 5.78541C1.24162 6.29243 1.49669 6.75634 1.86707 7.11898C2.23745 7.48162 2.70664 7.72685 3.21583 7.82391L5.71332 3.11841C5.20416 2.79192 4.6141 2.61376 4.00933 2.60391V2.60091Z" fill="black"/>
<path fill-rule="evenodd" clip-rule="evenodd" d="M24.3516 2.62493C28.1016 -0.0120746 31.4991 5.93843 27.1356 7.43543L24.3516 2.62493Z" fill="#6AD7E5"/>
<path d="M27.0828 7.57796L24.1953 2.59046L24.2838 2.52896C24.7641 2.14444 25.3479 1.91158 25.961 1.86002C26.574 1.80847 27.1886 1.94055 27.7263 2.23946C28.2346 2.53764 28.6501 2.97108 28.9266 3.49149C29.2031 4.0119 29.3297 4.59885 29.2923 5.18696C29.2162 5.74737 28.9734 6.27198 28.5955 6.69271C28.2175 7.11345 27.7219 7.41089 27.1728 7.54646L27.0828 7.57796ZM24.5088 2.65946L27.1893 7.28996C27.675 7.15765 28.1112 6.88549 28.4434 6.50732C28.7757 6.12916 28.9896 5.66166 29.0583 5.16296C29.092 4.61961 28.9743 4.07757 28.7182 3.59717C28.4621 3.11677 28.0777 2.71686 27.6078 2.44196C27.1281 2.16633 26.5771 2.03983 26.0252 2.07856C25.4732 2.1173 24.9454 2.31953 24.5088 2.65946V2.65946Z" fill="black"/>
<path fill-rule="evenodd" clip-rule="evenodd" d="M25.1592 37.9756C26.1132 38.5651 27.8592 40.3501 26.4252 41.2156C25.0512 42.4741 24.2817 39.8341 23.0742 39.4681C23.3062 39.0941 23.6098 38.7698 23.9677 38.5136C24.3255 38.2575 24.7304 38.0746 25.1592 37.9756V37.9756Z" fill="#F6D2A2"/>
<path d="M25.7009 41.6716H25.6439C25.1024 41.6386 24.6524 41.1106 24.2174 40.5991C23.9188 40.1649 23.5132 39.8151 23.0399 39.5836L22.8809 39.5356L22.9799 39.4006C23.4692 38.6226 24.2461 38.0694 25.1414 37.8616H25.1849L25.2224 37.8841C25.8329 38.2621 27.0929 39.3661 27.0869 40.3651C27.0837 40.5625 27.0273 40.7553 26.9235 40.9233C26.8197 41.0912 26.6725 41.228 26.4974 41.3191C26.2861 41.5333 26.0014 41.6593 25.7009 41.6716V41.6716ZM23.2634 39.4216C23.7081 39.6835 24.0942 40.0343 24.3974 40.4521C24.8189 40.9471 25.2179 41.4151 25.6589 41.4421C25.7876 41.4417 25.9149 41.4149 26.0328 41.3633C26.1507 41.3117 26.2568 41.2364 26.3444 41.1421L26.3624 41.1286C26.5052 41.0588 26.626 40.951 26.7117 40.8172C26.7974 40.6833 26.8447 40.5285 26.8484 40.3696C26.8484 39.5716 25.8404 38.5696 25.1324 38.1196C24.3672 38.2972 23.6987 38.7602 23.2634 39.4141V39.4216Z" fill="black"/>
<path d="M26.4254 41.3339C26.4036 41.3338 26.3823 41.3278 26.3638 41.3164C26.3453 41.305 26.3303 41.2888 26.3204 41.2694C26.2506 41.1229 26.189 40.9727 26.1359 40.8194C26.0541 40.5311 25.9073 40.2653 25.7069 40.0424C25.6883 40.02 25.6787 39.9915 25.6798 39.9624C25.6809 39.9333 25.6927 39.9056 25.7129 39.8846C25.7331 39.8637 25.7604 39.8509 25.7894 39.8487C25.8184 39.8466 25.8473 39.8552 25.8704 39.8729C26.0976 40.1198 26.2645 40.4161 26.3579 40.7384C26.4083 40.8814 26.4663 41.0216 26.5319 41.1584C26.546 41.1865 26.5484 41.219 26.5385 41.2488C26.5287 41.2786 26.5074 41.3033 26.4794 41.3174C26.463 41.3272 26.4444 41.3329 26.4254 41.3339V41.3339Z" fill="black"/>
<path fill-rule="evenodd" clip-rule="evenodd" d="M8.1222 39.9929C7.0032 40.1654 6.3732 41.1764 5.4402 41.6894C4.5612 42.2144 4.2237 41.5214 4.1457 41.3804C4.0077 41.3174 4.0197 41.4389 3.8067 41.2304C2.9862 39.9374 4.6542 38.9999 5.5212 38.3579C6.7287 38.1134 7.4862 39.1604 8.1222 39.9929Z" fill="#F6D2A2"/>
<path d="M4.84309 41.9999C4.7717 42.0004 4.70057 41.9913 4.63159 41.9729C4.50833 41.9327 4.39438 41.8681 4.29648 41.7831C4.19858 41.6981 4.11871 41.5943 4.06159 41.4779H4.03459C3.93559 41.4779 3.86209 41.4569 3.71509 41.3084L3.69859 41.2889C2.91409 40.0499 4.24909 39.1094 5.13409 38.4869C5.24509 38.4089 5.35009 38.3369 5.44459 38.2649L5.46559 38.2499H5.49109C6.73459 37.9979 7.52059 39.0269 8.15059 39.8534L8.32909 40.0859L8.13259 40.1159C7.50042 40.2676 6.92512 40.5977 6.47509 41.0669C6.17233 41.3438 5.84212 41.589 5.48959 41.7989C5.29586 41.9223 5.07265 41.9917 4.84309 41.9999V41.9999ZM4.05259 41.2409C4.10036 41.241 4.14752 41.2517 4.19059 41.2724L4.22509 41.2889L4.25509 41.3414C4.29734 41.4346 4.35788 41.5183 4.43312 41.5876C4.50837 41.6569 4.59677 41.7104 4.69309 41.7449C4.81134 41.7669 4.93279 41.7649 5.05027 41.7392C5.16776 41.7134 5.27888 41.6643 5.37709 41.5949C5.7166 41.392 6.03473 41.1553 6.32659 40.8884C6.77025 40.445 7.31328 40.1139 7.91059 39.9224C7.31059 39.1334 6.61759 38.2814 5.56759 38.4779C5.46913 38.5496 5.3691 38.6191 5.26759 38.6864C4.36759 39.3224 3.23959 40.1144 3.88909 41.1584C3.98209 41.2514 4.00459 41.2499 4.02409 41.2499L4.05259 41.2409Z" fill="black"/>
<path d="M4.14427 41.4975H4.13377C4.10257 41.4949 4.07371 41.4799 4.05347 41.4561C4.03323 41.4322 4.02327 41.4012 4.02577 41.37C4.0742 41.0555 4.20515 40.7595 4.40527 40.512C4.49961 40.3815 4.58243 40.2429 4.65277 40.098C4.66688 40.0716 4.69047 40.0515 4.71878 40.0418C4.74709 40.0321 4.77804 40.0335 4.8054 40.0456C4.83275 40.0578 4.85449 40.0798 4.86625 40.1074C4.878 40.1349 4.8789 40.1659 4.86877 40.194C4.7931 40.3515 4.70376 40.5021 4.60177 40.644C4.4252 40.8601 4.30832 41.1187 4.26277 41.394C4.2591 41.4228 4.24501 41.4492 4.22317 41.4683C4.20134 41.4874 4.17326 41.4978 4.14427 41.4975V41.4975Z" fill="black"/>
<path fill-rule="evenodd" clip-rule="evenodd" d="M3.47447 6.30004C2.84897 5.96854 2.38997 5.52004 2.77247 4.80004C3.12647 4.12954 3.78497 4.20004 4.41047 4.53304L3.47447 6.30004ZM26.147 5.66704C26.7725 5.33554 27.2315 4.88704 26.849 4.16704C26.495 3.49654 25.8365 3.56704 25.211 3.90004L26.147 5.66704Z" fill="black"/>
<path fill-rule="evenodd" clip-rule="evenodd" d="M30.455 22.5689C30.395 23.8079 29.1575 23.2349 28.5965 22.8479C28.064 22.4804 27.908 22.7864 27.8615 22.0604C27.8133 21.5845 27.7937 21.1061 27.803 20.6279C28.6294 20.545 29.4585 20.7576 30.143 21.2279C30.4835 21.4754 31.1195 22.2629 30.455 22.5779" fill="#F6D2A2"/>
<path d="M29.8124 23.4406C29.3495 23.3891 28.908 23.218 28.5314 22.9441C28.4113 22.8603 28.2793 22.7951 28.1399 22.7506C27.8744 22.6576 27.7784 22.5796 27.7454 22.0666C27.7454 21.9571 27.7304 21.8491 27.7214 21.7396C27.6853 21.3672 27.6738 20.9929 27.6869 20.6191V20.5171L27.7889 20.5081C28.6435 20.4192 29.5017 20.639 30.2084 21.1276C30.3891 21.2514 30.5406 21.4131 30.6525 21.6014C30.7644 21.7897 30.834 22.0002 30.8564 22.2181C30.8464 22.3084 30.8136 22.3948 30.7612 22.469C30.7087 22.5433 30.6382 22.603 30.5564 22.6426C30.5601 22.7884 30.5244 22.9324 30.4531 23.0597C30.3819 23.1869 30.2776 23.2926 30.1514 23.3656C30.0453 23.4154 29.9295 23.441 29.8124 23.4406V23.4406ZM27.9179 20.7406C27.9132 21.07 27.9263 21.3995 27.9569 21.7276L27.9809 22.0576C28.0064 22.4611 28.0424 22.4731 28.2164 22.5346C28.3766 22.5858 28.5283 22.6606 28.6664 22.7566C29.1254 23.0746 29.7359 23.3221 30.0629 23.1601C30.2324 23.0761 30.3254 22.8781 30.3404 22.5691V22.4986L30.4049 22.4686C30.4627 22.4491 30.5139 22.414 30.5528 22.3671C30.5918 22.3202 30.6169 22.2634 30.6254 22.2031C30.6524 21.9181 30.3164 21.5041 30.0734 21.3271C29.4438 20.889 28.6829 20.6803 27.9179 20.7361V20.7406Z" fill="black"/>
<path fill-rule="evenodd" clip-rule="evenodd" d="M30.4544 22.569C30.2661 22.5274 30.0944 22.4308 29.9609 22.2915Z" fill="#C6B198"/>
<path d="M30.4551 22.6859C30.4417 22.6883 30.428 22.6883 30.4146 22.6859L30.3381 22.6589C30.1551 22.613 29.9907 22.5119 29.8671 22.3694C29.8559 22.3572 29.8474 22.3428 29.8421 22.3271C29.8368 22.3114 29.8349 22.2948 29.8365 22.2783C29.838 22.2618 29.843 22.2458 29.8511 22.2313C29.8592 22.2169 29.8703 22.2043 29.8836 22.1944C29.8969 22.1845 29.9121 22.1775 29.9282 22.1738C29.9444 22.1702 29.9611 22.1699 29.9774 22.1731C29.9936 22.1763 30.009 22.1829 30.0226 22.1924C30.0361 22.202 30.0475 22.2142 30.0561 22.2284C30.1529 22.3326 30.2789 22.4053 30.4176 22.4369L30.4971 22.4654C30.5221 22.4757 30.5428 22.4943 30.5558 22.518C30.5689 22.5417 30.5734 22.5691 30.5686 22.5958C30.5639 22.6224 30.5502 22.6466 30.5298 22.6644C30.5094 22.6821 30.4836 22.6924 30.4566 22.6934L30.4551 22.6859Z" fill="black"/>
<path fill-rule="evenodd" clip-rule="evenodd" d="M14.9601 0.118408C19.7091 0.118408 24.1611 0.797908 26.4816 5.36091C28.5651 10.4744 27.8241 15.9899 28.1421 21.3944C28.4151 26.0354 29.0196 31.3964 26.8671 35.6984C24.6021 40.2224 18.9426 41.3609 14.2791 41.1944C10.6161 41.0639 6.19255 39.8684 4.12555 36.5219C1.70005 32.5964 2.84905 26.7584 3.02455 22.3904C3.23305 17.2169 1.62355 12.0254 3.32455 6.96291C5.08855 1.71291 9.84355 0.523408 14.9616 0.118408" fill="#6AD7E5"/>
<path d="M15.0914 41.325C14.7914 41.325 14.5214 41.325 14.2769 41.31C12.0269 41.229 6.51292 40.6065 4.02742 36.582C2.06692 33.408 2.41642 29.0205 2.72392 25.149C2.80192 24.1755 2.87392 23.2545 2.90992 22.3845C2.94494 20.5484 2.86629 18.7119 2.67442 16.8855C2.16425 13.5634 2.34811 10.1715 3.21442 6.924C3.57331 5.76668 4.16951 4.69688 4.96498 3.78287C5.76045 2.86886 6.73772 2.1307 7.83442 1.6155C10.0835 0.632055 12.4986 0.0838785 14.9519 0H14.9609C19.5974 0 24.2159 0.6435 26.5874 5.307V5.316C27.8522 9.06045 28.3838 13.0134 28.1534 16.959C28.1609 18.4125 28.1699 19.917 28.2554 21.387C28.2809 21.837 28.3109 22.287 28.3409 22.737C28.6169 26.9985 28.9289 31.83 26.9684 35.7465C24.5249 40.638 18.3569 41.325 15.0914 41.325V41.325ZM14.9654 0.2355C10.0244 0.627 5.21542 1.7175 3.43492 6.999C2.58025 10.2164 2.39998 13.5757 2.90542 16.866C3.09658 18.7025 3.17373 20.549 3.13642 22.395C3.10042 23.271 3.02842 24.195 2.95042 25.17C2.65042 29.0055 2.29942 33.3525 4.21942 36.4605C6.64642 40.389 12.0614 40.998 14.2769 41.076C17.1599 41.1795 24.1454 40.8555 26.7539 35.6445C28.6859 31.785 28.3754 26.988 28.1039 22.7565L28.0184 21.4065C27.9314 19.9305 27.9239 18.423 27.9164 16.9665C28.1452 13.053 27.6202 9.13196 26.3699 5.4165C24.0614 0.864 19.5239 0.237 14.9654 0.2355V0.2355Z" fill="black"/>
<path fill-rule="evenodd" clip-rule="evenodd" d="M15.7994 6.49347C16.6514 11.4435 24.7544 10.14 23.5904 5.14347C22.5404 0.661472 15.5159 1.90197 15.7994 6.49347Z" fill="white"/>
<path d="M19.6478 9.72759C19.1438 9.72947 18.6429 9.64735 18.1658 9.4846C17.5163 9.26976 16.9399 8.87746 16.5017 8.35207C16.0635 7.82667 15.7811 7.18914 15.6863 6.5116V6.4996C15.6266 5.46377 15.9709 4.44514 16.6467 3.65793C17.3226 2.87072 18.2774 2.37628 19.3103 2.2786C20.2681 2.07987 21.2655 2.26601 22.0871 2.79679C22.9087 3.32757 23.4883 4.16034 23.7008 5.11509C23.8766 5.73679 23.8753 6.39524 23.6969 7.0162C23.5186 7.63717 23.1703 8.19596 22.6913 8.62959C21.8429 9.35144 20.7617 9.7415 19.6478 9.72759V9.72759ZM15.9128 6.4801C16.0029 7.11568 16.2685 7.71354 16.6798 8.20642C17.091 8.69931 17.6317 9.06768 18.2408 9.2701C18.9667 9.51348 19.7428 9.56682 20.4951 9.42502C21.2475 9.28322 21.9509 8.95101 22.5383 8.46009C22.9876 8.05272 23.3138 7.52769 23.48 6.94446C23.6463 6.36123 23.6458 5.7431 23.4788 5.1601C23.276 4.26174 22.7275 3.47941 21.9521 2.98249C21.1767 2.48558 20.2368 2.31407 19.3358 2.5051C18.3624 2.5974 17.4624 3.06275 16.8244 3.8037C16.1863 4.54465 15.8597 5.50373 15.9128 6.4801V6.4801Z" fill="black"/>
<path fill-rule="evenodd" clip-rule="evenodd" d="M6.11769 7.29441C7.22169 11.6099 14.1307 10.4999 13.8697 6.17691C13.5577 0.992912 5.06019 1.99341 6.11619 7.29441" fill="white"/>
<path d="M9.80309 10.1414C9.10045 10.1482 8.40716 9.98013 7.78559 9.65244C7.34189 9.41153 6.95423 9.07939 6.64812 8.67788C6.34201 8.27637 6.12439 7.8146 6.00959 7.32294C5.83907 6.65113 5.8652 5.94447 6.08486 5.28709C6.30452 4.6297 6.70846 4.04929 7.24859 3.61494C7.9003 3.11798 8.67154 2.80167 9.48451 2.6979C10.2975 2.59414 11.1234 2.7066 11.8791 3.02394C12.4941 3.29259 13.0191 3.73231 13.3914 4.29076C13.7637 4.84921 13.9677 5.50286 13.9791 6.17394C14.014 7.14138 13.6777 8.08556 13.0391 8.81313C12.4005 9.54069 11.5079 9.99658 10.5441 10.0874C10.2989 10.1246 10.0511 10.1426 9.80309 10.1414V10.1414ZM6.22559 7.27044C6.46335 8.17488 7.04373 8.9513 7.84387 9.43536C8.64401 9.91943 9.60112 10.0731 10.5126 9.86394C11.4212 9.78027 12.2636 9.35254 12.8673 8.66828C13.4709 7.98401 13.7903 7.09493 13.7601 6.18294C13.7505 5.55186 13.5596 4.93687 13.2101 4.41131C12.8606 3.88576 12.3673 3.47184 11.7891 3.21894C11.0708 2.91695 10.2855 2.80979 9.51251 2.90829C8.73954 3.00679 8.00622 3.30745 7.38659 3.77994C6.879 4.18937 6.49973 4.73602 6.2939 5.35483C6.08808 5.97363 6.06437 6.63854 6.22559 7.27044V7.27044Z" fill="black"/>
<path fill-rule="evenodd" clip-rule="evenodd" d="M16.7766 12.441C16.8476 13.1234 16.8556 13.8108 16.8006 14.4945C16.6356 14.805 16.3131 14.838 16.0356 14.964C15.8464 14.9343 15.668 14.8569 15.517 14.7391C15.3661 14.6212 15.2478 14.4669 15.1731 14.2905C15.1317 13.5156 15.1523 12.7387 15.2346 11.967L16.7766 12.441Z" fill="white"/>
<path d="M16.0526 15.0856H16.0181C15.8085 15.0524 15.6109 14.966 15.4442 14.8347C15.2774 14.7034 15.1471 14.5315 15.0656 14.3356V14.3041C15.0157 13.7735 15.0202 13.2392 15.0791 12.7096C15.0986 12.4651 15.1181 12.2131 15.1256 11.9596V11.8096L16.8971 12.3526V12.4396C16.8971 12.6526 16.9151 12.8731 16.9331 13.1056C16.9882 13.5737 16.9842 14.0469 16.9211 14.5141V14.5321L16.9121 14.5486C16.8439 14.6612 16.7538 14.7591 16.6471 14.8364C16.5405 14.9136 16.4194 14.9688 16.2911 14.9986C16.2206 15.0241 16.1546 15.0466 16.0901 15.0766L16.0526 15.0856ZM15.2891 14.2591C15.3549 14.4081 15.4559 14.5389 15.5834 14.6402C15.7109 14.7416 15.8611 14.8105 16.0211 14.8411C16.0826 14.8156 16.1456 14.7931 16.2056 14.7706C16.4009 14.73 16.5735 14.6169 16.6886 14.4541C16.7422 14.0122 16.7422 13.5654 16.6886 13.1236C16.6736 12.9181 16.6586 12.7216 16.6541 12.5236L15.3416 12.1216C15.3311 12.3256 15.3161 12.5281 15.3011 12.7216C15.244 13.2322 15.239 13.7474 15.2861 14.2591H15.2891Z" fill="black"/>
<path d="M8.02247 7.85388C8.66698 7.85388 9.18947 7.28842 9.18947 6.59088C9.18947 5.89335 8.66698 5.32788 8.02247 5.32788C7.37795 5.32788 6.85547 5.89335 6.85547 6.59088C6.85547 7.28842 7.37795 7.85388 8.02247 7.85388Z" fill="black"/>
<path d="M8.5538 7.19693C8.7054 7.19693 8.8283 7.05322 8.8283 6.87593C8.8283 6.69865 8.7054 6.55493 8.5538 6.55493C8.40219 6.55493 8.2793 6.69865 8.2793 6.87593C8.2793 7.05322 8.40219 7.19693 8.5538 7.19693Z" fill="white"/>
<path d="M17.7959 7.53894C18.4297 7.53894 18.9434 6.97348 18.9434 6.27594C18.9434 5.5784 18.4297 5.01294 17.7959 5.01294C17.1622 5.01294 16.6484 5.5784 16.6484 6.27594C16.6484 6.97348 17.1622 7.53894 17.7959 7.53894Z" fill="black"/>
<path d="M18.3188 6.88199C18.4679 6.88199 18.5888 6.73827 18.5888 6.56099C18.5888 6.38371 18.4679 6.23999 18.3188 6.23999C18.1697 6.23999 18.0488 6.38371 18.0488 6.56099C18.0488 6.73827 18.1697 6.88199 18.3188 6.88199Z" fill="white"/>
<path fill-rule="evenodd" clip-rule="evenodd" d="M13.442 12.3705C12.9335 13.6035 13.7255 16.071 15.107 14.2515C15.0657 13.4766 15.0862 12.6996 15.1685 11.928L13.442 12.3705Z" fill="white"/>
<path d="M14.1854 15.0194C14.0662 15.0188 13.9492 14.9867 13.8464 14.9264C13.5154 14.5911 13.2904 14.1659 13.1995 13.7036C13.1085 13.2414 13.1556 12.7626 13.3349 12.3269L13.3574 12.2729L15.2864 11.7749V11.9249C15.2789 12.1799 15.2579 12.4349 15.2384 12.6749C15.1801 13.1885 15.1751 13.7068 15.2234 14.2214V14.2694L15.1949 14.3084C14.7974 14.8499 14.4539 15.0194 14.1854 15.0194ZM13.5314 12.4694C13.3883 12.8477 13.3529 13.2583 13.4292 13.6555C13.5054 14.0527 13.6904 14.421 13.9634 14.7194C14.3204 14.9234 14.7134 14.5694 14.9849 14.2169C14.9416 13.702 14.9481 13.1841 15.0044 12.6704C15.0194 12.4769 15.0344 12.2789 15.0449 12.0824L13.5314 12.4694Z" fill="black"/>
<path fill-rule="evenodd" clip-rule="evenodd" d="M13.6155 9.99458C13.3787 10.0168 13.1507 10.0951 12.9501 10.2228C12.7495 10.3505 12.5822 10.5241 12.4619 10.7292C12.3417 10.9343 12.2719 11.1651 12.2583 11.4025C12.2447 11.6399 12.2878 11.8771 12.384 12.0946C13.0365 13.2766 14.4945 11.9896 15.4035 12.1111C16.4535 12.1321 17.3055 13.2166 18.144 12.3076C19.077 11.2966 17.742 10.3111 16.698 9.87158L13.6155 9.99458Z" fill="#F6D2A2"/>
<path d="M17.3973 12.789C17.0624 12.7627 16.7358 12.6715 16.4358 12.5205C16.1125 12.3598 15.7619 12.2611 15.4023 12.2295H15.3888C15.0207 12.2297 14.6568 12.3074 14.3208 12.4575C13.5843 12.7125 12.7488 13.0005 12.2808 12.1575C12.1674 11.9453 12.1098 11.7077 12.1134 11.467C12.1171 11.2264 12.1819 10.9907 12.3018 10.782C12.4281 10.5362 12.6132 10.3254 12.8406 10.1684C13.068 10.0114 13.3307 9.913 13.6053 9.882L16.7208 9.75L16.7448 9.7605C17.5203 10.0875 18.4038 10.686 18.5553 11.385C18.5756 11.5538 18.5614 11.7249 18.5136 11.8881C18.4657 12.0512 18.3852 12.2029 18.2768 12.3339C18.1685 12.465 18.0347 12.5726 17.8835 12.6503C17.7323 12.728 17.5669 12.7742 17.3973 12.786V12.789ZM15.4128 12C15.8004 12.0318 16.1786 12.1366 16.5273 12.309C17.1168 12.5565 17.5773 12.7515 18.0588 12.234C18.1662 12.135 18.247 12.0106 18.2936 11.8722C18.3403 11.7337 18.3513 11.5858 18.3258 11.442C18.1953 10.842 17.3628 10.2885 16.6758 9.996L13.6218 10.1175C13.3873 10.147 13.1636 10.233 12.9697 10.3681C12.7758 10.5032 12.6177 10.6833 12.5088 10.893C12.4079 11.0672 12.3529 11.2641 12.3489 11.4653C12.345 11.6666 12.3923 11.8655 12.4863 12.0435C12.8583 12.717 13.5363 12.4845 14.2413 12.2385C14.6099 12.0751 15.0096 11.9937 15.4128 12V12Z" fill="#231F20"/>
<path fill-rule="evenodd" clip-rule="evenodd" d="M13.4973 9.94498C13.4268 8.30248 16.5603 8.09998 16.9353 9.47248C17.3103 10.845 13.6563 11.1645 13.5018 9.94648L13.4973 9.94498Z" fill="black"/>
</svg>
