<svg width="48" height="47" viewBox="0 0 48 47" fill="none" xmlns="http://www.w3.org/2000/svg">
<path d="M47.873 28.0462C47.5845 27.2195 46.8287 26.6437 45.8514 26.5056C45.3905 26.4405 44.8628 26.4682 44.2382 26.59C43.1496 26.8025 42.342 26.8834 41.7526 26.8991C43.9773 23.3453 45.7863 19.2928 46.8278 15.478C48.5118 9.30956 47.6119 6.49945 46.5603 5.22839C43.7773 1.86401 39.7171 0.0566413 34.8187 0.00133894C32.2056 -0.0288906 29.9117 0.459228 28.715 0.810247C27.6008 0.624246 26.4028 0.520398 25.1458 0.501194C22.7895 0.46563 20.7076 0.951614 18.9286 1.95043C17.9438 1.63534 16.3631 1.19114 14.5377 0.907692C10.2446 0.240864 6.7844 0.760457 4.25346 2.45207C1.18874 4.50021 -0.231978 8.05876 0.0307766 13.0289C0.114227 14.6068 1.04721 19.408 2.51623 23.9613C3.36051 26.5785 4.26079 28.7518 5.19208 30.4215C6.51281 32.7892 7.92601 34.1835 9.5125 34.6843C10.4017 34.9645 12.0173 35.1608 13.7166 33.8218C13.932 34.0686 14.2193 34.3139 14.6007 34.5416C15.085 34.8306 15.6773 35.0667 16.2687 35.2067C18.4003 35.7108 20.3969 35.5847 22.1003 34.8781C22.1108 35.1647 22.1189 35.4386 22.1257 35.6751C22.1369 36.0586 22.1482 36.4347 22.1631 36.7865C22.264 39.1646 22.435 41.0138 22.9417 42.3076C22.9696 42.3787 23.007 42.4872 23.0464 42.6023C23.2992 43.3345 23.7219 44.5604 24.7974 45.5205C25.911 46.515 27.258 46.82 28.4917 46.82C29.1105 46.82 29.7008 46.7432 30.2186 46.6383C32.0643 46.264 34.1605 45.6939 35.6769 43.6511C37.1106 41.7199 37.8075 38.8113 37.9336 34.2283C37.9499 34.0987 37.965 33.9749 37.9795 33.857L38.0095 33.6148L38.3473 33.6429L38.4343 33.6484C40.3142 33.7295 42.6128 33.3524 44.0245 32.732C45.14 32.2422 48.7146 30.4567 47.873 28.0462" fill="black"/>
<path d="M44.6586 28.515C39.069 29.6059 38.6846 27.8154 38.6846 27.8154C44.5863 19.5302 47.0535 9.01334 44.9246 6.43938C39.1162 -0.581877 29.0618 2.73875 28.8939 2.82482L28.84 2.83406C27.7356 2.61712 26.4998 2.48802 25.1107 2.46651C22.5816 2.42739 20.663 3.09386 19.2072 4.13838C19.2072 4.13838 1.27107 -2.85247 2.10538 12.9306C2.2828 16.2882 7.19207 38.3364 13.0475 31.6768C15.1877 29.2415 17.2557 27.1826 17.2557 27.1826C18.2826 27.828 19.5122 28.1574 20.8012 28.0391L20.9014 27.9587C20.8702 28.261 20.8844 28.5568 20.9414 28.9069C19.4329 30.5014 19.8763 30.7813 16.8608 31.3686C13.8094 31.9636 15.6019 33.0227 16.7723 33.2998C18.1911 33.6353 21.4735 34.1108 23.6913 31.1734L23.6029 31.5086C24.1939 31.9565 24.6089 34.4218 24.5393 36.6569C24.4698 38.8917 24.4234 40.4261 24.8889 41.6246C25.3548 42.8232 25.8189 45.5198 29.7831 44.7162C33.0954 44.0446 34.8119 42.3043 35.0508 39.4012C35.2202 37.3374 35.6038 37.6425 35.6278 35.7973L35.9355 34.9238C36.2902 32.1262 35.9919 31.2235 38.0325 31.6434L38.5286 31.6846C40.0304 31.7492 41.9963 31.456 43.1502 30.9486C45.6345 29.8579 47.108 28.0365 44.6583 28.515H44.6586" fill="#336791"/>
<path d="M20.2571 14.432C19.7533 14.3657 19.2972 14.4271 19.0664 14.5924C18.9367 14.6854 18.8965 14.7932 18.8856 14.8673C18.8566 15.0638 19.0021 15.2811 19.0916 15.3932C19.3446 15.7104 19.7141 15.9284 20.0798 15.9764C20.1328 15.9835 20.1856 15.9867 20.2381 15.9867C20.848 15.9867 21.4026 15.5374 21.4515 15.2057C21.5126 14.7903 20.8752 14.5135 20.2571 14.4322V14.432ZM36.944 14.4452C36.8959 14.1196 36.2836 14.0268 35.7024 14.1032C35.122 14.1797 34.5593 14.4276 34.6063 14.7539C34.6439 15.0076 35.1283 15.4408 35.7015 15.4408C35.75 15.4408 35.7989 15.4378 35.8481 15.4312C36.2308 15.3811 36.5116 15.1511 36.645 15.0187C36.848 14.8167 36.9657 14.5915 36.944 14.4452" fill="white"/>
<path d="M46.5186 28.391C46.3055 27.7813 45.6195 27.5851 44.4797 27.8078C41.0957 28.4685 39.8838 28.0108 39.4859 27.7336C42.1162 23.9425 44.2801 19.3597 45.4475 15.084C46.0004 13.0586 46.3058 11.1776 46.3308 9.64441C46.3585 7.96169 46.0555 6.72513 45.4308 5.96974C42.9118 2.92456 39.2149 1.2911 34.7398 1.24628C31.6632 1.21357 29.0638 1.95846 28.56 2.16793C27.4988 1.91827 26.342 1.76499 25.0825 1.74543C22.773 1.71004 20.7766 2.23319 19.1237 3.29958C18.4058 3.04672 16.5503 2.44409 14.2812 2.09822C10.3583 1.50075 7.24094 1.95348 5.01636 3.44451C2.36193 5.22378 1.1365 8.40429 1.37388 12.8975C1.45376 14.4091 2.36419 19.0595 3.80088 23.513C5.69204 29.3747 7.74784 32.693 9.91077 33.3757C10.1639 33.4555 10.4558 33.5114 10.7778 33.5114C11.5668 33.5114 12.5342 33.1749 13.5407 32.0301C14.7683 30.6368 16.0381 29.2773 17.3487 27.9534C18.199 28.3851 19.1331 28.6263 20.0885 28.6505C20.0903 28.6741 20.0928 28.6978 20.095 28.7212C19.9306 28.9068 19.7696 29.095 19.612 29.2858C18.9501 30.0808 18.8123 30.2464 16.6815 30.6614C16.0754 30.7799 14.4656 31.0937 14.4419 32.1613C14.4163 33.3279 16.3449 33.8178 16.5646 33.8697C17.3303 34.0511 18.068 34.1405 18.7715 34.1405C20.4824 34.1405 21.9881 33.6085 23.1913 32.5791C23.1543 36.7376 23.3376 40.8353 23.8653 42.0838C24.2976 43.1059 25.3535 45.6037 28.6889 45.6035C29.1783 45.6035 29.717 45.5497 30.3096 45.4295C33.7906 44.7235 35.3023 43.2679 35.887 40.0587C36.1999 38.3437 36.7369 34.2483 36.9895 32.0515C37.5226 32.2088 38.2088 32.2808 38.9506 32.2807C40.4978 32.2807 42.2831 31.9697 43.4028 31.478C44.6605 30.9253 46.9302 29.5693 46.5186 28.391V28.391ZM38.2289 13.5465C38.2174 14.195 38.1231 14.7838 38.0231 15.3983C37.9154 16.0593 37.8041 16.7427 37.7761 17.5722C37.7485 18.3795 37.855 19.2188 37.958 20.0306C38.1663 21.6701 38.38 23.358 37.5528 25.0234C37.4154 24.7931 37.293 24.555 37.1863 24.3106C37.0835 24.0748 36.8602 23.696 36.551 23.1718C35.3483 21.1311 32.5319 16.3524 33.9737 14.4024C34.4031 13.822 35.4931 13.2252 38.2289 13.5465V13.5465ZM34.9127 2.55949C38.9224 2.64325 42.0943 4.06244 44.3399 6.77741C46.0623 8.85987 44.1657 18.3354 38.6751 26.51C38.6199 26.4436 38.5643 26.3774 38.5085 26.3114L38.439 26.2292C39.8578 24.0123 39.5804 21.8189 39.3335 19.8743C39.232 19.0762 39.1361 18.3224 39.1605 17.6143C39.1857 16.8639 39.2906 16.2202 39.3921 15.5979C39.5167 14.8309 39.6436 14.0373 39.6086 13.1018C39.6347 13.0036 39.6453 12.8877 39.6315 12.7501C39.5423 11.8529 38.4597 9.16803 36.2531 6.73793C35.0461 5.40872 33.286 3.92125 30.8826 2.91798C31.9164 2.71526 33.3299 2.52624 34.9127 2.55949V2.55949ZM12.4755 31.1922C11.3666 32.4537 10.6009 32.2119 10.3491 32.1325C8.70827 31.6147 6.80433 28.3336 5.12574 23.1305C3.67326 18.6285 2.82448 14.1013 2.75719 12.8319C2.54519 8.81701 3.57384 6.019 5.81477 4.51535C9.46176 2.06853 15.4578 3.53306 17.8671 4.27582C17.8325 4.30818 17.7964 4.33841 17.7622 4.37131C13.8085 8.14894 13.9023 14.6031 13.912 14.9977C13.9117 15.1499 13.9252 15.3654 13.9436 15.6619C14.0117 16.7475 14.1383 18.7679 13.8 21.0559C13.4858 23.1821 14.1786 25.2631 15.7004 26.7656C15.8566 26.9194 16.0207 27.0659 16.1923 27.2044C15.5149 27.8908 14.0427 29.4087 12.4755 31.1922V31.1922ZM16.7005 25.8588C15.4739 24.6479 14.9168 22.9636 15.1719 21.2373C15.529 18.8203 15.3972 16.7153 15.3264 15.5843C15.3164 15.4261 15.3076 15.2874 15.3025 15.178C15.8801 14.6935 18.5567 13.3367 20.4655 13.7505C21.3365 13.9391 21.8672 14.5003 22.0879 15.4656C23.2299 20.4629 22.239 22.5457 21.4428 24.2195C21.2788 24.5643 21.1237 24.8902 20.9914 25.2274L20.8888 25.4881C20.629 26.1471 20.3873 26.7599 20.2375 27.3417C18.9335 27.3381 17.665 26.8111 16.7005 25.8587V25.8588ZM16.9006 32.5983C16.5199 32.5083 16.1774 32.352 15.9765 32.2223C16.1443 32.1477 16.443 32.0459 16.961 31.9449C19.4677 31.4568 19.8548 31.1122 20.7002 30.0967C20.894 29.8637 21.1137 29.5998 21.418 29.2783L21.4184 29.278C21.8716 28.7979 22.0789 28.8793 22.4548 29.0269C22.7594 29.146 23.0562 29.5074 23.1765 29.905C23.2334 30.0928 23.2973 30.4491 23.0882 30.7265C21.3222 33.0659 18.7488 33.0359 16.9006 32.5983V32.5983ZM30.0194 44.1481C26.9528 44.7697 25.867 43.2894 25.1515 41.5971C24.6897 40.5045 24.4626 35.5778 24.6237 30.137C24.6258 30.0647 24.6149 29.9948 24.5938 29.929C24.575 29.7991 24.5464 29.6706 24.5081 29.5445C24.2687 28.7529 23.6851 28.0907 22.985 27.8161C22.7068 27.7071 22.1963 27.5071 21.5829 27.6555C21.7137 27.1456 21.9405 26.5696 22.1866 25.946L22.2897 25.6837C22.4059 25.388 22.5517 25.0816 22.7059 24.7572C23.5391 23.0061 24.6801 20.6074 23.4417 15.1887C22.9778 13.159 21.4287 12.1679 19.0805 12.3981C17.6727 12.536 16.3847 13.0733 15.7423 13.3815C15.6042 13.4476 15.4779 13.5117 15.3598 13.5739C15.5391 11.529 16.2165 7.70723 18.7505 5.28922C20.346 3.76707 22.4707 3.01525 25.0596 3.05579C30.1605 3.13474 33.4316 5.61143 35.2777 7.6754C36.8685 9.45379 37.7299 11.2453 38.0736 12.2116C35.4884 11.9628 33.7301 12.4456 32.8388 13.6513C30.8997 16.2738 33.8996 21.3637 35.3414 23.81C35.6058 24.2583 35.834 24.6457 35.9058 24.8104C36.3753 25.8869 36.9831 26.6057 37.4269 27.1303C37.563 27.291 37.6949 27.447 37.7953 27.5832C37.0123 27.7967 35.6058 28.2902 35.734 30.7567C35.6306 31.9944 34.8956 37.7889 34.5221 39.8361C34.0291 42.5408 32.9772 43.5481 30.0194 44.1483V44.1481ZM42.8196 30.2894C42.0189 30.641 40.679 30.9047 39.4062 30.9614C38.0003 31.0237 37.2846 30.8124 37.1162 30.6824C37.0373 29.1453 37.6419 28.9848 38.2819 28.8148C38.3824 28.7881 38.4805 28.7619 38.5753 28.7306C38.6341 28.776 38.6986 28.821 38.7692 28.8651C39.8992 29.5707 41.9146 29.6468 44.76 29.0911L44.7912 29.0852C44.4074 29.4247 43.7507 29.8803 42.8196 30.2894Z" fill="white"/>
</svg>
