<svg width="44" height="41" viewBox="0 0 44 41" fill="none" xmlns="http://www.w3.org/2000/svg">
<path d="M10.714 14.0005C5.44 15.3605 2 17.6905 2 20.3505C2 24.5645 10.81 28.0005 21.7 28.0005C23.18 28.0005 24.22 27.9225 25.6 27.8065" stroke="#699BF7" stroke-width="4" stroke-linecap="round" stroke-linejoin="round"/>
<path d="M17.6742 27.8004C16.8482 26.6084 16.0622 25.5344 15.3142 24.2004C9.81223 14.4004 8.33823 4.66045 12.0542 2.45444C14.3542 1.06044 18.1482 2.96044 22.0022 6.96244" stroke="#699BF7" stroke-width="4" stroke-linecap="round" stroke-linejoin="round"/>
<path d="M10.8575 26.7745C9.45346 32.1505 9.73746 36.2065 11.9775 37.5645C15.5435 39.7245 22.7515 33.6485 28.0635 23.9565C28.7835 22.6165 29.4295 21.2985 29.9995 20.0005" stroke="#699BF7" stroke-width="4" stroke-linecap="round" stroke-linejoin="round"/>
<path d="M22 33.0404C25.856 37.0404 29.634 38.9404 31.956 37.5464C35.656 35.3424 34.198 25.6024 28.69 15.8004C27.922 14.4464 27.136 13.3924 26.33 12.2004" stroke="#699BF7" stroke-width="4" stroke-linecap="round" stroke-linejoin="round"/>
<path d="M33.3204 26.0005C38.5444 24.6265 42.0004 22.3005 42.0004 19.6485C42.0004 15.4285 33.1844 12.0005 22.3104 12.0005C20.8164 12.0005 19.7784 12.0585 18.4004 12.1745" stroke="#699BF7" stroke-width="4" stroke-linecap="round" stroke-linejoin="round"/>
<path d="M22.52 20.0305H22.5C22.48 20.2905 22.26 20.5105 21.98 20.5105C21.8461 20.5039 21.7197 20.4464 21.6268 20.3497C21.5339 20.2531 21.4814 20.1246 21.48 19.9905C21.48 19.7105 21.7 19.4905 21.96 19.4905H21.94C22.2 19.4705 22.44 19.7105 22.44 19.9705M14 20.0005C14.57 18.6805 15.214 17.3845 15.936 16.0445C21.23 6.35649 28.442 0.264494 32.028 2.44249C34.248 3.80049 34.552 7.85449 33.148 13.2285L14 20.0005Z" stroke="#699BF7" stroke-width="4" stroke-linecap="round" stroke-linejoin="round"/>
</svg>
