<svg width="42" height="42" viewBox="0 0 42 42" fill="none" xmlns="http://www.w3.org/2000/svg">
<path d="M19.6834 4.94745C19.6834 4.70061 19.7566 4.45933 19.8938 4.25409C20.0309 4.04886 20.2258 3.8889 20.4539 3.79444C20.6819 3.69998 20.9328 3.67527 21.1749 3.72343C21.417 3.77158 21.6394 3.89044 21.8139 4.06498C21.9884 4.23951 22.1073 4.46188 22.1555 4.70397C22.2036 4.94606 22.1789 5.19699 22.0844 5.42503C21.99 5.65308 21.83 5.84799 21.6248 5.98512C21.4196 6.12225 21.1783 6.19545 20.9314 6.19545C20.7675 6.19564 20.6051 6.1635 20.4536 6.10085C20.3021 6.0382 20.1645 5.94628 20.0485 5.83035C19.9326 5.71443 19.8407 5.57677 19.778 5.42527C19.7154 5.27376 19.6832 5.11139 19.6834 4.94745V4.94745ZM4.79744 16.2484C4.79744 16.0016 4.87064 15.7603 5.00777 15.5551C5.1449 15.3499 5.33981 15.1899 5.56786 15.0954C5.7959 15.001 6.04683 14.9763 6.28892 15.0244C6.53101 15.0726 6.75338 15.1914 6.92791 15.366C7.10245 15.5405 7.22131 15.7629 7.26946 16.005C7.31762 16.2471 7.2929 16.498 7.19845 16.726C7.10399 16.9541 6.94403 17.149 6.7388 17.2861C6.53356 17.4233 6.29228 17.4964 6.04544 17.4964C5.88155 17.4964 5.71927 17.4642 5.56786 17.4014C5.41644 17.3387 5.27886 17.2468 5.16297 17.1309C5.04709 17.015 4.95516 16.8774 4.89244 16.726C4.82973 16.5746 4.79744 16.4123 4.79744 16.2484V16.2484ZM34.5814 16.3069C34.5814 16.0601 34.6546 15.8188 34.7918 15.6136C34.9289 15.4084 35.1238 15.2484 35.3519 15.1539C35.5799 15.0595 35.8308 15.0348 36.0729 15.0829C36.315 15.1311 36.5374 15.2499 36.7119 15.4245C36.8864 15.599 37.0053 15.8214 37.0535 16.0635C37.1016 16.3056 37.0769 16.5565 36.9824 16.7845C36.888 17.0126 36.728 17.2075 36.5228 17.3446C36.3176 17.4818 36.0763 17.5549 35.8294 17.5549C35.6655 17.5551 35.5031 17.523 35.3516 17.4603C35.2001 17.3977 35.0625 17.3058 34.9465 17.1899C34.8306 17.0739 34.7387 16.9363 34.676 16.7848C34.6134 16.6333 34.5812 16.4709 34.5814 16.3069V16.3069ZM8.40494 18.0169C8.68008 17.8942 8.89543 17.6675 9.00393 17.3864C9.11242 17.1053 9.10524 16.7927 8.98394 16.5169L8.43044 15.2644H10.6084V25.0819H6.21344C5.67097 23.1768 5.50187 21.1848 5.71544 19.2154L8.40494 18.0169ZM17.5159 18.2584V15.3649H22.7029C22.9714 15.3649 24.5944 15.6739 24.5944 16.8889C24.5944 17.8969 23.3494 18.2584 22.3249 18.2584H17.5159ZM10.4344 33.8389C10.4344 33.5921 10.5076 33.3508 10.6448 33.1456C10.7819 32.9404 10.9768 32.7804 11.2049 32.6859C11.4329 32.5915 11.6838 32.5668 11.9259 32.6149C12.168 32.6631 12.3904 32.7819 12.5649 32.9565C12.7394 33.131 12.8583 33.3534 12.9065 33.5955C12.9546 33.8376 12.9299 34.0885 12.8354 34.3165C12.741 34.5446 12.581 34.7395 12.3758 34.8766C12.1706 35.0138 11.9293 35.0869 11.6824 35.0869C11.5185 35.0871 11.3561 35.055 11.2046 34.9923C11.0531 34.9297 10.9155 34.8378 10.7995 34.7219C10.6836 34.6059 10.5917 34.4683 10.529 34.3168C10.4664 34.1653 10.4342 34.0029 10.4344 33.8389V33.8389ZM28.9309 33.8974C28.9309 33.6506 29.0041 33.4093 29.1413 33.2041C29.2784 32.9989 29.4733 32.8389 29.7014 32.7444C29.9294 32.65 30.1803 32.6253 30.4224 32.6734C30.6645 32.7216 30.8869 32.8404 31.0614 33.015C31.2359 33.1895 31.3548 33.4119 31.403 33.654C31.4511 33.8961 31.4264 34.147 31.3319 34.375C31.2375 34.6031 31.0775 34.798 30.8723 34.9351C30.6671 35.0723 30.4258 35.1454 30.1789 35.1454C29.848 35.1454 29.5305 35.014 29.2965 34.7799C29.0624 34.5459 28.9309 34.2284 28.9309 33.8974ZM29.3164 31.0669C29.1703 31.0357 29.0194 31.0336 28.8724 31.0607C28.7254 31.0878 28.5852 31.1437 28.4598 31.225C28.3344 31.3064 28.2263 31.4117 28.1416 31.5349C28.057 31.6581 27.9975 31.7967 27.9664 31.9429L27.3394 34.8664C25.3243 35.7789 23.136 36.2458 20.924 36.2352C18.7119 36.2246 16.5282 35.7367 14.5219 34.8049L13.8964 31.8814C13.8331 31.5866 13.6554 31.3289 13.4023 31.165C13.1492 31.001 12.8414 30.9442 12.5464 31.0069L9.96495 31.5619C9.48515 31.068 9.03915 30.5423 8.62994 29.9884H21.1909C21.3334 29.9884 21.4279 29.9629 21.4279 29.8384V25.3894C21.4279 25.2604 21.3334 25.2394 21.1909 25.2394H17.5159V22.4179H21.4894C22.0817 22.4239 22.6527 22.6401 23.1002 23.0281C23.5478 23.4161 23.843 23.9505 23.9329 24.5359C24.0904 25.1554 24.4369 27.1714 24.6739 27.8164C24.9094 28.5409 25.8739 29.9869 26.8969 29.9869H33.3814C32.9466 30.5699 32.4709 31.1213 31.9579 31.6369L29.3164 31.0669ZM36.2914 19.3354C36.3797 20.2223 36.3907 21.1152 36.3244 22.0039H34.7479C34.5904 22.0039 34.5259 22.1074 34.5259 22.2619V22.9864C34.5259 24.6904 33.5644 25.0624 32.7259 25.1569C31.9234 25.2469 31.0339 24.8209 30.9259 24.3304C30.8681 23.4809 30.611 22.6569 30.1756 21.9252C29.7401 21.1934 29.1385 20.5745 28.4194 20.1184C29.9644 19.1374 31.5694 17.6899 31.5694 15.7519C31.5376 14.9285 31.3002 14.1262 30.879 13.418C30.4577 12.7098 29.8659 12.1184 29.1574 11.6974C28.1693 11.0574 27.0326 10.6833 25.8574 10.6114H9.54794C11.8025 8.09154 14.825 6.38543 18.1474 5.75744L20.0704 7.77345C20.1734 7.88163 20.2967 7.96846 20.4333 8.02898C20.5699 8.08949 20.717 8.1225 20.8664 8.12612C21.0157 8.12974 21.1643 8.10391 21.3036 8.05008C21.443 7.99626 21.5703 7.91551 21.6784 7.81245L23.8294 5.75444C26.0226 6.16591 28.0999 7.04994 29.917 8.3451C31.7341 9.64026 33.2475 11.3155 34.3519 13.2544L32.8789 16.5799C32.7581 16.8558 32.7511 17.1682 32.8595 17.4492C32.968 17.7301 33.1831 17.9569 33.4579 18.0799L36.2914 19.3354ZM39.9634 19.3894L39.9139 18.8749L41.4304 17.4604C41.4879 17.4006 41.533 17.3301 41.5631 17.2528C41.5933 17.1755 41.6079 17.0931 41.6061 17.0101C41.6042 16.9272 41.5861 16.8455 41.5526 16.7696C41.5191 16.6937 41.471 16.6252 41.4109 16.5679C41.3578 16.5174 41.2964 16.4763 41.2294 16.4464L39.2974 15.7219L39.1474 15.2209L40.3564 13.5409C40.4457 13.3994 40.4754 13.2283 40.4388 13.0649C40.4023 12.9016 40.3025 12.7594 40.1614 12.6694C40.1 12.6309 40.0326 12.603 39.9619 12.5869L37.9174 12.2539L37.6714 11.7949L38.5309 9.90944C38.5613 9.83263 38.5763 9.75057 38.575 9.66797C38.5736 9.58537 38.556 9.50384 38.5231 9.42805C38.4902 9.35227 38.4427 9.2837 38.3833 9.22629C38.3239 9.16887 38.2538 9.12373 38.1769 9.09345C38.1071 9.06621 38.0329 9.05148 37.9579 9.04994L35.8834 9.12195L35.5474 8.72594L36.0244 6.70545C36.0387 6.62369 36.0366 6.53994 36.0185 6.45897C36.0003 6.378 35.9664 6.30141 35.9186 6.23357C35.8708 6.16572 35.8101 6.10797 35.74 6.06359C35.6699 6.01921 35.5917 5.98909 35.5099 5.97494C35.4384 5.96294 35.3654 5.96294 35.2939 5.97494L33.2719 6.44745L32.8729 6.11894L32.9464 4.04744C32.9445 3.96451 32.9262 3.88277 32.8927 3.80689C32.8591 3.73102 32.811 3.6625 32.7509 3.60525C32.6909 3.548 32.6202 3.50313 32.5428 3.47323C32.4654 3.44332 32.3829 3.42895 32.2999 3.43094C32.2276 3.43286 32.1561 3.44706 32.0884 3.47294L30.2029 4.33244L29.7439 4.08644L29.4109 2.04194C29.374 1.87964 29.2745 1.73848 29.1341 1.64915C28.9936 1.55983 28.8236 1.52957 28.6609 1.56494C28.5903 1.58104 28.5228 1.60893 28.4614 1.64744L26.7799 2.85644L26.2804 2.70644L25.5559 0.766945C25.4883 0.61382 25.3626 0.493832 25.2065 0.433358C25.0503 0.372884 24.8766 0.376872 24.7234 0.444445C24.6573 0.47432 24.5965 0.51486 24.5434 0.564445L23.1244 2.08244L22.6099 2.03294L21.5179 0.267445C21.4596 0.184803 21.3823 0.117375 21.2925 0.0708339C21.2027 0.0242927 21.1031 0 21.0019 0C20.9008 0 20.8011 0.0242927 20.7113 0.0708339C20.6216 0.117375 20.5443 0.184803 20.4859 0.267445L19.3939 2.03294L18.8794 2.08244L17.4649 0.564445C17.3436 0.449127 17.1814 0.386718 17.014 0.390937C16.8467 0.395156 16.6878 0.465658 16.5724 0.586945C16.5229 0.63997 16.4823 0.70078 16.4524 0.766945L15.7219 2.69744L15.2224 2.84744L13.5424 1.64744C13.4009 1.55814 13.2298 1.52852 13.0664 1.56506C12.9031 1.60161 12.7609 1.70134 12.6709 1.84244C12.6324 1.90384 12.6045 1.97128 12.5884 2.04194L12.2554 4.08644L11.7964 4.33244L9.90944 3.47294C9.75367 3.41263 9.58034 3.41649 9.42741 3.48368C9.27447 3.55087 9.15439 3.67591 9.09344 3.83145C9.06756 3.90062 9.05337 3.97361 9.05144 4.04744L9.12344 6.12195L8.72444 6.44745L6.70394 5.97345C6.62219 5.95922 6.53844 5.96125 6.45747 5.97941C6.3765 5.99758 6.29991 6.03152 6.23207 6.0793C6.16422 6.12708 6.10646 6.18777 6.06209 6.25789C6.01771 6.328 5.98759 6.40618 5.97344 6.48794C5.96144 6.55944 5.96144 6.63244 5.97344 6.70394L6.44744 8.72594L6.12044 9.12344L4.04744 9.05145C3.94619 9.05409 3.84705 9.08099 3.75835 9.12989C3.66965 9.17879 3.59397 9.24826 3.53769 9.33247C3.4814 9.41668 3.44615 9.51316 3.43488 9.61382C3.42361 9.71448 3.43667 9.81638 3.47294 9.91095L4.33244 11.7964L4.08644 12.2554L2.04194 12.5884C1.87944 12.625 1.73803 12.7244 1.64864 12.865C1.55925 13.0055 1.52916 13.1758 1.56494 13.3384C1.58104 13.4091 1.60893 13.4766 1.64744 13.5379L2.85644 15.2179L2.70644 15.7189L0.766945 16.4434C0.61382 16.5111 0.493832 16.6368 0.433358 16.7929C0.372884 16.949 0.376872 17.1228 0.444445 17.2759C0.473904 17.3431 0.51504 17.4046 0.565945 17.4574L2.08244 18.8719L2.03294 19.3864L0.267445 20.4784C0.184803 20.5368 0.117375 20.6141 0.0708339 20.7038C0.0242927 20.7936 0 20.8933 0 20.9944C0 21.0956 0.0242927 21.1952 0.0708339 21.285C0.117375 21.3748 0.184803 21.4521 0.267445 21.5104L2.03294 22.6024L2.08244 23.1169L0.565945 24.5314C0.450627 24.6528 0.388218 24.815 0.392438 24.9824C0.396657 25.1497 0.467158 25.3085 0.588445 25.4239C0.640914 25.4735 0.70123 25.5141 0.766945 25.5439L2.70644 26.2684L2.85644 26.7694L1.64744 28.4554C1.6031 28.5256 1.573 28.6037 1.55887 28.6855C1.54474 28.7672 1.54687 28.851 1.56511 28.9319C1.58336 29.0128 1.61738 29.0894 1.66522 29.1572C1.71307 29.225 1.7738 29.2826 1.84394 29.3269C1.90534 29.3655 1.97278 29.3933 2.04344 29.4094L4.08794 29.7424L4.33394 30.2029L3.47444 32.0884C3.41415 32.2446 3.41818 32.4183 3.48565 32.5715C3.55312 32.7247 3.67853 32.845 3.83444 32.9059C3.9031 32.9318 3.9756 32.946 4.04894 32.9479L6.12344 32.8759L6.45194 33.2749L5.97644 35.2969C5.94768 35.4614 5.9854 35.6306 6.08131 35.7673C6.17722 35.904 6.32348 35.997 6.48794 36.0259C6.56033 36.0394 6.63456 36.0394 6.70694 36.0259L8.72444 35.5474L9.12344 35.8744L9.04994 37.9474C9.0517 38.0301 9.06974 38.1116 9.10305 38.1873C9.13637 38.263 9.18428 38.3314 9.24406 38.3885C9.30384 38.4456 9.37431 38.4904 9.45142 38.5202C9.52853 38.5501 9.61078 38.5644 9.69344 38.5624C9.76687 38.5613 9.8395 38.547 9.90794 38.5204L11.7934 37.6609L12.2524 37.9069L12.5854 39.9499C12.622 40.1125 12.7214 40.2541 12.8619 40.3437C13.0024 40.4333 13.1726 40.4638 13.3354 40.4284C13.4063 40.413 13.4739 40.3851 13.5349 40.3459L15.2149 39.1354L15.7159 39.2854L16.4404 41.2234C16.5087 41.3764 16.6348 41.4961 16.7911 41.5562C16.9474 41.6164 17.1212 41.6122 17.2744 41.5444C17.3402 41.5146 17.4005 41.474 17.4529 41.4244L18.8674 39.9079L19.3819 39.9589L20.4739 41.7244C20.5711 41.8612 20.7185 41.9538 20.8839 41.982C21.0493 42.0101 21.2191 41.9714 21.3559 41.8744C21.4142 41.8334 21.4649 41.7827 21.5059 41.7244L22.5979 39.9589L23.1124 39.9079L24.5269 41.4244C24.6483 41.5398 24.8105 41.6022 24.9778 41.598C25.1452 41.5937 25.304 41.5232 25.4194 41.4019C25.469 41.3495 25.5096 41.2892 25.5394 41.2234L26.2639 39.2854L26.7649 39.1354L28.4449 40.3459C28.5151 40.3903 28.5932 40.4204 28.675 40.4345C28.7567 40.4486 28.8405 40.4465 28.9214 40.4283C29.0023 40.41 29.0789 40.376 29.1467 40.3282C29.2145 40.2803 29.2721 40.2196 29.3164 40.1494C29.355 40.0881 29.3828 40.0206 29.3989 39.9499L29.7319 37.9069L30.1909 37.6609L32.0764 38.5204C32.2322 38.5808 32.4055 38.5769 32.5585 38.5097C32.7114 38.4425 32.8315 38.3175 32.8924 38.1619C32.9183 38.0933 32.9325 38.0208 32.9344 37.9474L32.8624 35.8714L33.2599 35.5444L35.2804 36.0199C35.4449 36.0488 35.6141 36.0113 35.751 35.9157C35.8879 35.8201 35.9813 35.6743 36.0109 35.5099C36.0229 35.4374 36.0229 35.3635 36.0109 35.2909L35.5474 33.2719L35.8744 32.8729L37.9489 32.9449C38.1162 32.9406 38.2749 32.8701 38.3902 32.7489C38.5055 32.6277 38.568 32.4657 38.5639 32.2984C38.563 32.2255 38.5488 32.1533 38.5219 32.0854L37.6624 30.1999L37.9084 29.7394L39.9529 29.4064C40.1155 29.3699 40.257 29.2705 40.3467 29.13C40.4363 28.9895 40.4668 28.8193 40.4314 28.6564C40.4151 28.5847 40.3867 28.5162 40.3474 28.4539L39.1384 26.7739L39.2884 26.2729L41.2279 25.5484C41.3037 25.5151 41.3722 25.4671 41.4294 25.4073C41.4866 25.3475 41.5315 25.277 41.5614 25.1998C41.5914 25.1226 41.6058 25.0403 41.6039 24.9575C41.602 24.8748 41.5839 24.7932 41.5504 24.7174C41.521 24.6502 41.4798 24.5888 41.4289 24.5359L39.9124 23.1214L39.9619 22.6069L41.7274 21.5149C41.8101 21.4566 41.8775 21.3793 41.9241 21.2895C41.9706 21.1997 41.9949 21.1001 41.9949 20.9989C41.9949 20.8978 41.9706 20.7981 41.9241 20.7084C41.8775 20.6186 41.8101 20.5413 41.7274 20.4829L39.9634 19.3894Z" fill="url(#paint0_radial_1807_7741)"/>
<defs>
<radialGradient id="paint0_radial_1807_7741" cx="0" cy="0" r="1" gradientUnits="userSpaceOnUse" gradientTransform="translate(21.0195 21.5028) rotate(-30.0007) scale(20.9965 12.6052)">
<stop stop-color="#7D7D7D"/>
<stop offset="0.267" stop-color="#7E7C7A"/>
<stop offset="0.45" stop-color="#817871"/>
<stop offset="0.608" stop-color="#867162"/>
<stop offset="0.753" stop-color="#8D684C"/>
<stop offset="0.886" stop-color="#965C30"/>
<stop offset="1" stop-color="#A04F12"/>
</radialGradient>
</defs>
</svg>
