<svg width="40" height="25" viewBox="0 0 40 25" fill="none" xmlns="http://www.w3.org/2000/svg">
<path d="M33 7.0436C31.5001 6.52702 30.1762 5.59818 29.18 4.3636C28.0821 2.98806 26.6841 1.88187 25.093 1.12965C23.5019 0.37742 21.7598 -0.000909643 20 0.0235993C17.6327 -0.14405 15.2892 0.586089 13.436 2.06861C11.5829 3.55114 10.3561 5.67727 10 8.0236C10.7013 6.85009 11.7569 5.92933 13.0148 5.39384C14.2727 4.85834 15.668 4.73571 17 5.0436C18.4974 5.57522 19.8192 6.50946 20.82 7.7436C21.9239 9.10815 23.3246 10.2029 24.9153 10.9446C26.5061 11.6862 28.2451 12.0553 30 12.0236C32.3673 12.1912 34.7108 11.4611 36.564 9.97859C38.4171 8.49606 39.6439 6.36993 40 4.0236C39.3114 5.21114 38.2592 6.14581 36.9987 6.6896C35.7383 7.2334 34.3364 7.3575 33 7.0436ZM7 17.0036C8.49989 17.5202 9.82383 18.449 10.82 19.6836C11.9179 21.0591 13.3159 22.1653 14.907 22.9176C16.4981 23.6698 18.2402 24.0481 20 24.0236C22.3673 24.1913 24.7108 23.4611 26.564 21.9786C28.4171 20.4961 29.6439 18.3699 30 16.0236C29.2987 17.1971 28.2431 18.1179 26.9852 18.6534C25.7273 19.1889 24.332 19.3115 23 19.0036C21.5026 18.472 20.1808 17.5377 19.18 16.3036C18.0731 14.9424 16.6719 13.8501 15.0818 13.1087C13.4917 12.3674 11.7542 11.9964 10 12.0236C7.63273 11.856 5.28917 12.5861 3.43601 14.0686C1.58286 15.5511 0.356084 17.6773 0 20.0236C0.688614 18.8361 1.74082 17.9014 3.00127 17.3576C4.26172 16.8138 5.66362 16.6897 7 17.0036Z" fill="#33A9DC"/>
</svg>
