<svg width="48" height="48" viewBox="0 0 48 48" fill="none" xmlns="http://www.w3.org/2000/svg">
<path d="M44.9947 23.6332C44.9947 21.1658 42.7855 19.1654 40.0604 19.1654C39.885 19.1654 39.7122 19.1739 39.5417 19.1902L46.3189 1.09119H17.518L24.2859 19.1744C24.186 19.1687 24.086 19.1657 23.9859 19.1656C21.2609 19.1656 19.0516 21.1656 19.0516 23.6333C19.0516 25.6278 20.4953 27.3164 22.4876 27.8909C21.4354 29.5413 20.1112 31.0279 18.6078 32.3123C16.5635 34.0584 14.2239 35.3826 11.6935 36.1984C8.68068 34.797 7.25807 31.6804 8.54169 28.9479C8.68669 28.6392 8.8347 28.3265 8.97614 28.0151C11.1587 27.5538 12.7853 25.7822 12.7853 23.6653C12.7853 21.1977 10.5761 19.1975 7.85086 19.1975C5.12565 19.1975 2.9166 21.1977 2.9166 23.6653C2.9166 25.1784 3.74793 26.515 5.01897 27.3232C3.79771 29.8409 2.00244 32.476 1.44309 35.53C0.772727 39.19 1.44083 43.0751 4.93689 45.2692C13.0789 50.3788 21.917 42.1016 31.2355 40.0208C34.6127 39.2668 38.3198 39.3883 41.2952 37.828C43.5296 36.6562 45.0028 34.7142 45.4207 32.534C45.8339 30.3802 45.2317 28.2358 43.8471 26.497C44.5899 25.6944 44.9963 24.6803 44.9947 23.6332" fill="#99425B"/>
<path d="M44.2335 32.3473C43.8706 34.2402 42.5795 35.8934 40.6914 36.8838C38.9313 37.8068 36.8221 38.0823 34.5889 38.3738C33.3926 38.5299 32.1555 38.6916 30.9471 38.9614C27.7517 39.6748 24.6567 41.0669 21.6638 42.413C15.674 45.1069 10.5012 47.4332 5.62363 44.3722C2.05076 42.1301 2.21567 37.9818 2.6319 35.7086C3.0177 33.6024 4.06071 31.6627 5.06916 29.787C5.24097 29.4682 5.4114 29.1488 5.58043 28.8288C6.08878 29.0128 6.62219 29.134 7.16627 29.1891C6.1396 32.257 7.75417 35.5928 11.1428 37.169L11.6067 37.3848L12.0977 37.2265C14.7767 36.3625 17.2453 34.9764 19.4349 33.1058C20.8501 31.8968 22.0671 30.5592 23.0673 29.1299C23.3713 29.1714 23.6784 29.1923 23.9859 29.1923C27.0962 29.1923 29.6717 27.087 30.0703 24.3679C31.3434 24.3257 32.6955 24.3253 33.976 24.3675C34.3742 27.087 36.9501 29.1925 40.0603 29.1925C41.3608 29.1925 42.5671 28.8234 43.5609 28.1965C44.2508 29.4753 44.5083 30.9141 44.2335 32.3473V32.3473ZM7.85109 20.2887C9.90744 20.2887 11.5802 21.8035 11.5802 23.6655C11.5808 24.3099 11.3764 24.9409 10.9914 25.483C10.3716 26.3584 9.31785 26.9584 8.10729 27.0332C8.02258 27.0383 7.93712 27.0421 7.85109 27.0421C7.39279 27.0421 6.95384 26.9664 6.54794 26.829C5.73048 26.5506 5.04593 26.0227 4.61237 25.3363C4.29043 24.8277 4.12127 24.2516 4.12176 23.6655C4.12176 21.8035 5.79475 20.2887 7.85109 20.2887V20.2887ZM20.257 23.6333C20.257 21.9416 21.6381 20.537 23.4326 20.2941C23.6133 20.2695 23.7981 20.2567 23.9861 20.2567C25.1817 20.2567 26.2461 20.7695 26.9286 21.5641C27.0996 21.7622 27.2457 21.9769 27.364 22.2044C27.5958 22.6515 27.7158 23.1394 27.7153 23.6333C27.7153 23.9032 27.6792 24.1656 27.6129 24.4174C27.2495 25.7949 25.9521 26.848 24.3623 26.9929C24.2388 27.0041 24.1133 27.0099 23.9861 27.0099C23.2688 27.0105 22.5668 26.8225 21.9651 26.4689C20.9384 25.8667 20.257 24.8209 20.257 23.6333V23.6333ZM35.8214 19.6179C35.0099 20.3193 34.4258 21.2084 34.1326 22.1889C32.727 22.142 31.32 22.142 29.9144 22.1889C29.5988 21.129 28.9448 20.194 28.0648 19.4837L31.9238 12.4186L35.8214 19.6181V19.6179ZM19.1989 2.1827H44.6379L38.6294 18.2281C38.3709 18.2842 38.1168 18.3555 37.8685 18.4415L31.9332 7.47822L25.9809 18.3761C25.7214 18.2954 25.4562 18.2307 25.1871 18.1824L19.1989 2.1827V2.1827ZM43.7895 23.6335C43.7895 23.9719 43.7337 24.2988 43.6309 24.6075C43.3872 25.3342 42.881 25.9658 42.1935 26.4009C41.5686 26.798 40.8237 27.0107 40.0603 27.0101C38.3385 27.0101 36.886 25.9477 36.4589 24.5089C36.3741 24.2234 36.3311 23.9291 36.3312 23.6335C36.3312 23.1719 36.4341 22.7318 36.62 22.3307C36.716 22.1256 36.8341 21.9295 36.9728 21.7454C37.6439 20.8484 38.7763 20.2569 40.0603 20.2569C40.1781 20.2569 40.2941 20.2623 40.4093 20.2722C42.3026 20.4319 43.7896 21.878 43.7896 23.6335H43.7895ZM46.1999 23.6335C46.1999 20.9195 44.0402 18.655 41.1957 18.1713L48 0H15.8372L22.652 18.208C19.9063 18.7613 17.8468 20.9829 17.8468 23.6333C17.8468 25.6235 19.0083 27.3715 20.7491 28.3538C19.9117 29.4834 18.9189 30.5464 17.781 31.5185C15.9764 33.0599 13.966 34.229 11.7987 34.9982C9.61555 33.7565 8.69275 31.4148 9.65105 29.3749L9.72618 29.2151L9.86706 28.9151C12.2649 28.1577 13.9905 26.0914 13.9905 23.6655C13.9905 20.6001 11.2363 18.1063 7.85109 18.1063C4.46567 18.1063 1.71154 20.6001 1.71154 23.6655C1.71154 25.2126 2.41402 26.6137 3.54437 27.6225C3.33355 28.027 3.11955 28.4301 2.90238 28.8317C1.86875 30.7537 0.697456 32.9322 0.254369 35.3514C-0.62542 40.156 0.793812 43.9967 4.2508 46.1659C6.34846 47.4823 8.47882 48 10.6225 48C14.6589 48 18.7423 46.1637 22.7361 44.3674C25.6123 43.074 28.5866 41.7364 31.5244 41.0803C32.6176 40.8362 33.7423 40.6893 34.9331 40.5339C37.2947 40.2253 39.7365 39.9065 41.8995 38.7722C44.4068 37.4573 46.123 35.2514 46.6084 32.7208C47.025 30.5481 46.5237 28.372 45.3009 26.5264C45.8901 25.6558 46.2013 24.6544 46.2 23.6333L46.1999 23.6335Z" fill="white"/>
</svg>
