<svg width="49" height="48" viewBox="0 0 49 48" fill="none" xmlns="http://www.w3.org/2000/svg">
<path d="M23.8628 0C11.6591 0 12.4211 5.29223 12.4211 5.29223L12.4346 10.7751H24.0804V12.4213H7.80913C7.80913 12.4213 0 11.5356 0 23.849C0 36.1628 6.816 35.7261 6.816 35.7261H10.8838V30.012C10.8838 30.012 10.6645 23.196 17.591 23.196H29.1415C29.1415 23.196 35.6309 23.3009 35.6309 16.9242V6.3808C35.6309 6.3808 36.6165 0 23.8628 0ZM17.4413 3.68715C17.7165 3.6869 17.9891 3.74093 18.2434 3.84612C18.4976 3.95132 18.7287 4.10563 18.9233 4.30023C19.1179 4.49482 19.2722 4.72588 19.3774 4.98017C19.4826 5.23447 19.5366 5.50701 19.5364 5.78221C19.5366 6.05741 19.4826 6.32995 19.3774 6.58425C19.2722 6.83854 19.1179 7.0696 18.9233 7.26419C18.7287 7.45879 18.4976 7.6131 18.2434 7.7183C17.9891 7.82349 17.7165 7.87752 17.4413 7.87727C17.1661 7.87752 16.8936 7.82349 16.6393 7.7183C16.385 7.6131 16.1539 7.45879 15.9593 7.26419C15.7647 7.0696 15.6104 6.83854 15.5052 6.58425C15.4 6.32995 15.346 6.05741 15.3463 5.78221C15.346 5.50701 15.4 5.23447 15.5052 4.98017C15.6104 4.72588 15.7647 4.49482 15.9593 4.30023C16.1539 4.10563 16.385 3.95132 16.6393 3.84612C16.8936 3.74093 17.1661 3.6869 17.4413 3.68715V3.68715Z" fill="url(#paint0_linear_107_44)"/>
<path d="M24.2093 47.8219C36.4129 47.8219 35.651 42.5297 35.651 42.5297L35.6374 37.047H23.9915V35.4009H40.2627C40.2627 35.4009 48.0719 36.2865 48.0719 23.9727C48.0719 11.6591 41.2559 12.0958 41.2559 12.0958H37.1881V17.8097C37.1881 17.8097 37.4074 24.6257 30.4809 24.6257H18.9304C18.9304 24.6257 12.441 24.5209 12.441 30.8977V41.4413C12.441 41.4413 11.4556 47.8219 24.2091 47.8219H24.2093ZM30.6307 44.1352C30.3555 44.1354 30.083 44.0814 29.8287 43.9762C29.5744 43.871 29.3433 43.7167 29.1488 43.5221C28.9542 43.3275 28.7998 43.0964 28.6946 42.8421C28.5895 42.5878 28.5354 42.3153 28.5357 42.0401C28.5354 41.7649 28.5894 41.4923 28.6946 41.238C28.7998 40.9837 28.9541 40.7526 29.1487 40.558C29.3433 40.3634 29.5743 40.2091 29.8287 40.1038C30.083 39.9986 30.3555 39.9446 30.6307 39.9448C30.9059 39.9446 31.1785 39.9986 31.4328 40.1038C31.6871 40.209 31.9181 40.3633 32.1127 40.5579C32.3073 40.7525 32.4616 40.9836 32.5668 41.2379C32.672 41.4922 32.726 41.7647 32.7258 42.0399C32.726 42.3151 32.672 42.5876 32.5668 42.8419C32.4616 43.0962 32.3073 43.3273 32.1127 43.5219C31.9181 43.7165 31.6871 43.8708 31.4328 43.976C31.1785 44.0812 30.9059 44.1352 30.6307 44.135V44.1352Z" fill="url(#paint1_linear_107_44)"/>
<defs>
<linearGradient id="paint0_linear_107_44" x1="4.61969" y1="4.3013" x2="28.4427" y2="27.8866" gradientUnits="userSpaceOnUse">
<stop stop-color="#387EB8"/>
<stop offset="1" stop-color="#366994"/>
</linearGradient>
<linearGradient id="paint1_linear_107_44" x1="19.2422" y1="19.4464" x2="44.8253" y2="43.6309" gradientUnits="userSpaceOnUse">
<stop stop-color="#FFE052"/>
<stop offset="1" stop-color="#FFC331"/>
</linearGradient>
</defs>
</svg>
