<svg width="48" height="36" viewBox="0 0 48 36" fill="none" xmlns="http://www.w3.org/2000/svg">
<path d="M41.2176 20.6362C39.5478 20.6449 38.0963 21.047 36.8811 21.6416C36.4351 20.7585 35.9892 19.9717 35.9106 19.3946C35.8231 18.7215 35.7183 18.3105 35.8231 17.5061C35.9281 16.7017 36.4002 15.5563 36.3914 15.4689C36.3828 15.3815 36.2864 14.9705 35.3247 14.9619C34.363 14.9531 33.5324 15.1455 33.4362 15.399C33.34 15.6525 33.1564 16.2296 33.034 16.824C32.8679 17.6985 31.1106 20.8196 30.1053 22.4546C29.7816 21.8165 29.5019 21.2569 29.4406 20.811C29.3532 20.1379 29.2482 19.7269 29.3532 18.9225C29.4582 18.1181 29.9303 16.9729 29.9215 16.8853C29.9127 16.7979 29.8165 16.3869 28.8548 16.3783C27.8929 16.3695 27.0623 16.5619 26.9663 16.8154C26.8701 17.069 26.7651 17.6634 26.5641 18.2405C26.3629 18.8177 24.0286 24.0287 23.4166 25.3749C23.1692 25.9198 22.9098 26.4591 22.6384 26.9925C22.6384 26.9925 22.6296 27.0187 22.6034 27.0624C22.5181 27.2296 22.4307 27.3958 22.3413 27.5608V27.5694C22.21 27.8057 22.0701 28.0241 22.0002 28.0241C21.9477 28.0241 21.8515 27.3947 22.0176 26.5378C22.3673 24.728 23.1979 21.9127 23.1893 21.8165C23.1893 21.764 23.3466 21.2745 22.6473 21.0208C21.9651 20.7673 21.7204 21.1869 21.6591 21.1869C21.598 21.1869 21.5541 21.3356 21.5541 21.3356C21.5541 21.3356 22.315 18.1706 20.1029 18.1706C18.7216 18.1706 16.8154 19.6832 15.8712 21.047C14.7978 21.6312 13.7253 22.217 12.6537 22.8045C12.1381 23.093 11.6046 23.3816 11.1063 23.6525C11.0712 23.6177 11.0363 23.5738 11.0013 23.5389C8.32582 20.6799 3.37732 18.6602 3.58713 14.822C3.66588 13.4231 4.14663 9.75092 13.0909 5.29198C20.4526 1.66348 26.3106 2.66886 27.3248 4.89842C28.7761 8.08104 24.1861 13.9914 16.5794 14.8481C13.6767 15.1717 12.1553 14.0525 11.7708 13.6329C11.3686 13.1957 11.3073 13.1694 11.1586 13.257C10.9139 13.3882 11.0712 13.7816 11.1586 14.0089C11.386 14.6032 12.3214 15.6525 13.9039 16.1685C15.3029 16.623 18.7039 16.8767 22.822 15.2854C27.4296 13.5017 31.0319 8.54436 29.974 4.39142C28.9159 0.177169 21.9214 -1.21296 15.3029 1.13886C11.3686 2.53798 7.10182 4.74111 4.033 7.60892C0.387066 11.0186 -0.190059 13.9826 0.046004 15.2242C0.894254 19.6307 6.97075 22.4985 9.40132 24.623C9.27888 24.693 9.16507 24.7543 9.06907 24.8068C7.85369 25.41 3.21982 27.8317 2.06575 30.3935C0.754379 33.2962 2.27575 35.3773 3.28113 35.6568C6.40244 36.5225 9.61113 34.9663 11.3335 32.3957C13.0559 29.8252 12.8461 26.4853 12.0505 24.9553C12.0417 24.9379 12.0331 24.9202 12.0154 24.9028C12.3303 24.7192 12.6537 24.5269 12.9685 24.3433C13.5471 24.0012 14.1331 23.6718 14.7259 23.3552C14.4286 24.1684 14.2099 25.1389 14.1051 26.5378C13.9739 28.1816 14.647 30.3148 15.5301 31.154C15.9237 31.5215 16.387 31.5302 16.6844 31.5302C17.716 31.5302 18.1795 30.6733 18.6953 29.6591C19.3248 28.4177 19.8931 26.975 19.8931 26.975C19.8931 26.975 19.1849 30.8745 21.1084 30.8745C21.8078 30.8745 22.516 29.9651 22.8308 29.5018V29.5104C22.8308 29.5104 22.8483 29.4842 22.8833 29.423C22.9533 29.3094 22.9969 29.2393 22.9969 29.2393V29.222C23.2767 28.7323 23.9063 27.6219 24.8418 25.7771C26.0483 23.399 27.2112 20.4264 27.2112 20.4264C27.2112 20.4264 27.3162 21.152 27.6745 22.3586C27.8845 23.0668 28.3214 23.8449 28.6713 24.5968C28.3915 24.9904 28.2166 25.2088 28.2166 25.2088L28.2254 25.2176C27.9979 25.5148 27.7533 25.8382 27.4821 26.1532C26.5291 27.2897 25.3926 28.5926 25.2351 28.9684C25.0514 29.4142 25.0953 29.7379 25.4451 30.0002C25.6986 30.1925 26.1531 30.2186 26.6166 30.1925C27.4735 30.1312 28.0767 29.9214 28.3739 29.7904C28.8374 29.6242 29.3794 29.3705 29.8864 28.9946C30.8221 28.3039 31.3902 27.3159 31.3379 26.0134C31.3116 25.2964 31.0756 24.5794 30.787 23.906C30.8746 23.7838 30.9531 23.6614 31.0407 23.5389C32.5182 21.3793 33.6636 19.0099 33.6636 19.0099C33.6636 19.0099 33.7686 19.7355 34.1269 20.9422C34.3019 21.5542 34.6604 22.2187 34.975 22.8656C33.5849 23.9936 32.728 25.305 32.422 26.1618C31.8713 27.7532 32.2996 28.47 33.1128 28.6361C33.4799 28.7148 34.0045 28.5399 34.3893 28.3738C34.8788 28.2165 35.4559 27.9455 36.0068 27.5432C36.9424 26.8526 37.8428 25.8907 37.7903 24.5882C37.7641 23.9936 37.6068 23.4077 37.3881 22.8394C38.5684 22.35 40.0898 22.0789 42.0306 22.3061C46.1926 22.7957 47.0144 25.3924 46.8569 26.4855C46.6996 27.5782 45.8253 28.1728 45.5369 28.3564C45.2481 28.5401 45.1521 28.6012 45.1784 28.7323C45.2133 28.9247 45.3531 28.916 45.598 28.881C45.9391 28.8198 47.7839 27.9979 47.8624 25.9869C47.9937 23.4165 45.5455 20.61 41.2176 20.6362ZM9.11275 31.4602C7.73125 32.964 5.80788 33.5323 4.97725 33.0515C4.0855 32.5355 4.43519 30.3148 6.13132 28.7237C7.16294 27.7532 8.49194 26.8524 9.37507 26.3017C9.57607 26.1793 9.87344 26.0045 10.2319 25.7859C10.2931 25.7509 10.3281 25.7334 10.3281 25.7334L10.5379 25.6022C11.1586 27.8754 10.5642 29.8777 9.11275 31.4602ZM19.1674 24.623C18.6865 25.7947 17.6811 28.7936 17.0691 28.6275C16.5445 28.4876 16.2209 26.2144 16.9641 23.9674C17.3401 22.8394 18.1356 21.4929 18.5991 20.9685C19.351 20.129 20.1816 19.8491 20.3826 20.1904C20.6363 20.6362 19.4646 23.8886 19.1674 24.623ZM27.4647 28.5924C27.2635 28.6974 27.0713 28.7674 26.9838 28.7149C26.9226 28.6798 27.0713 28.5399 27.0713 28.5399C27.0713 28.5399 28.1118 27.4209 28.5226 26.9137C28.7588 26.6165 29.0384 26.2669 29.3358 25.8733V25.9869C29.3358 27.3247 28.0416 28.2253 27.4645 28.5924H27.4647ZM33.8646 27.1324C33.7159 27.0274 33.7422 26.6777 34.2406 25.5847C34.4329 25.1563 34.8874 24.4395 35.6658 23.7487C35.7531 24.0285 35.8144 24.2996 35.8056 24.5531C35.7968 26.2406 34.5904 26.87 33.8646 27.1324Z" fill="#CD6799"/>
</svg>
