<svg width="34" height="37" viewBox="0 0 34 37" fill="none" xmlns="http://www.w3.org/2000/svg">
<path d="M25.1038 4.52178L25.3033 0.357219L29.3833 0.136719L29.5663 4.37609C29.5693 4.44403 29.5443 4.51064 29.4958 4.56378C29.4695 4.5926 29.4369 4.61651 29.3998 4.63408C29.3627 4.65166 29.322 4.66254 29.28 4.66609C29.2381 4.66964 29.1957 4.66578 29.1555 4.65475C29.1153 4.64371 29.078 4.62572 29.0458 4.60184L27.4708 3.52559L25.6063 4.75147C25.573 4.77421 25.5348 4.79092 25.494 4.8006C25.4532 4.81029 25.4106 4.81276 25.3687 4.80787C25.3268 4.80298 25.2865 4.79083 25.25 4.77213C25.2135 4.75343 25.1817 4.72856 25.1563 4.69897C25.1158 4.64704 25.0973 4.58439 25.1038 4.52178V4.52178Z" fill="white"/>
<path d="M25.3032 0.355846L25.1037 4.52172C25.1006 4.5856 25.1235 4.64838 25.1682 4.69891C25.1936 4.7285 25.2254 4.75337 25.2619 4.77207C25.2984 4.79077 25.3387 4.80292 25.3806 4.80781C25.4225 4.8127 25.4651 4.81023 25.5059 4.80054C25.5467 4.79086 25.5849 4.77415 25.6182 4.75141L27.4827 3.52553L29.0577 4.60178C29.0899 4.62566 29.1272 4.64365 29.1674 4.65469C29.2076 4.66572 29.25 4.66958 29.2919 4.66603C29.3339 4.66248 29.3746 4.6516 29.4117 4.63402C29.4488 4.61645 29.4814 4.59254 29.5077 4.56372C29.5562 4.51058 29.5812 4.44397 29.5782 4.37603L29.3832 0.135346L31.7322 0.00409575C32.0107 -0.0121149 32.2902 0.0198977 32.5545 0.0983007C32.8188 0.176704 33.0629 0.299957 33.2727 0.461006C33.4826 0.622054 33.654 0.817734 33.7773 1.03684C33.9006 1.25595 33.9733 1.49419 33.9912 1.73791V34.9061C33.9889 35.3972 33.7641 35.8674 33.3663 36.2138C32.9685 36.5602 32.43 36.7544 31.8687 36.7541H31.7697L3.34774 35.6463C2.81542 35.6273 2.31079 35.4336 1.9342 35.1038C1.55762 34.7741 1.33665 34.3324 1.31524 33.8666L0.00124261 3.53472C-0.017694 3.05096 0.180425 2.57992 0.553238 2.22231C0.926051 1.86471 1.44397 1.64892 1.99624 1.6211L25.3017 0.357158L25.3032 0.355846Z" fill="#FF4785"/>
<path d="M19.8806 13.8563C19.8806 14.5743 25.4606 14.2304 26.2106 13.7251C26.2106 8.82946 23.1836 6.25696 17.6396 6.25696C12.0956 6.25696 8.99061 8.86883 8.99061 12.788C8.99061 19.613 19.6061 19.7442 19.6061 23.4665C19.641 23.6912 19.6165 23.9199 19.5343 24.135C19.4521 24.35 19.3144 24.5457 19.1321 24.7068C18.9497 24.8679 18.7274 24.9902 18.4824 25.0641C18.2374 25.1381 17.9762 25.1618 17.7191 25.1333C16.0286 25.1333 15.3596 24.3826 15.4391 21.8363C15.4391 21.2838 8.98911 21.1105 8.79411 21.8363C8.29311 28.0051 12.7256 29.7901 17.7941 29.7901C22.7081 29.7901 26.5616 27.5155 26.5616 23.4008C26.5616 16.0863 15.7886 16.2831 15.7886 12.658C15.7661 12.4265 15.8034 12.1935 15.8978 11.9763C15.9921 11.7591 16.1411 11.5633 16.3337 11.4034C16.5263 11.2434 16.7576 11.1234 17.0104 11.0523C17.2632 10.9812 17.5311 10.9607 17.7941 10.9925C18.5831 10.9925 19.9991 11.1132 19.8806 13.8563V13.8563Z" fill="white"/>
</svg>
