<svg width="54" height="38" viewBox="0 0 54 38" fill="none" xmlns="http://www.w3.org/2000/svg">
<path d="M12.7417 9.90718H22.9266V10.8512H13.6753V17.9552H22.375V18.899H13.6753V26.6986H23.0327V27.6425H12.7417V9.90718ZM23.8391 9.90718H24.9212L29.7166 17.7068L34.618 9.90705L41.2848 0L30.3319 18.5265L35.976 27.6425H34.8514L29.7166 19.3462L24.5604 27.6425H23.4571L29.1437 18.5264L23.839 9.90718H23.8391ZM36.3791 10.8512V9.90705H47.9858V10.851H42.6386V27.6424H41.705V10.8512H36.3791V10.8512ZM0 9.90705H1.16701L17.2594 37.9856L10.6093 27.6424L0.976008 11.2485L0.933609 27.6426H0V9.90705ZM47.8917 26.4136C47.7009 26.4136 47.5579 26.2414 47.5579 26.0186C47.5579 25.796 47.7009 25.6236 47.8917 25.6236C48.0847 25.6236 48.2255 25.7959 48.2255 26.0186C48.2255 26.2413 48.0847 26.4136 47.8917 26.4136ZM48.809 25.3744H49.3086C49.3154 25.6898 49.5129 25.902 49.8036 25.902C50.1283 25.902 50.3123 25.674 50.3123 25.2471V22.5429H50.821V25.2497C50.821 26.0186 50.4395 26.4614 49.8081 26.4614C49.2154 26.4614 48.809 26.0318 48.809 25.3743V25.3744ZM51.4863 25.34H51.9904C52.0335 25.7031 52.3378 25.9337 52.7761 25.9337C53.1848 25.9337 53.4846 25.6871 53.4846 25.3478C53.4846 25.0563 53.2938 24.8813 52.8601 24.762L52.4377 24.6427C51.845 24.4809 51.5749 24.1468 51.5749 23.5848C51.5749 22.9035 52.0517 22.4501 52.767 22.4501C53.4323 22.4501 53.9183 22.9034 53.9478 23.5477H53.4527C53.4051 23.1951 53.1416 22.975 52.7601 22.975C52.3583 22.975 52.0904 23.2004 52.0904 23.545C52.0904 23.818 52.2628 23.9746 52.6898 24.0911L53.0508 24.1946C53.7229 24.3776 54 24.6957 54 25.271C54 26.0027 53.5141 26.4614 52.7375 26.4614C52.0109 26.4614 51.5225 26.0239 51.4863 25.3399V25.34Z" fill="white"/>
</svg>
