<svg width="44" height="47" viewBox="0 0 44 47" fill="none" xmlns="http://www.w3.org/2000/svg">
<path fill-rule="evenodd" clip-rule="evenodd" d="M26.224 5.36312L36.3897 10.9194C36.6832 10.6254 37.02 10.3731 37.3897 10.1703C39.4979 9.02291 42.187 9.70414 43.4116 11.7C44.6237 13.6959 43.9041 16.2413 41.7957 17.4006C41.4287 17.6006 41.0333 17.7496 40.6216 17.8431V28.9597C41.0288 29.0533 41.4199 29.2013 41.7831 29.3993C43.9041 30.5585 44.6237 33.1041 43.3991 35.1C42.187 37.0957 39.4853 37.7769 37.3769 36.6297C36.9685 36.4079 36.6005 36.1251 36.2873 35.7923L26.1834 41.3144C26.3314 41.7385 26.4065 42.1823 26.406 42.629C26.406 44.9236 24.4367 46.8 22 46.8C19.5633 46.8 17.594 44.9354 17.594 42.629C17.594 42.219 17.6562 41.823 17.7722 41.4489L7.60928 35.8943C7.31901 36.1824 6.98695 36.43 6.62306 36.6297C4.50213 37.7769 1.81298 37.0957 0.600918 35.1C-0.61097 33.1041 0.108669 30.5585 2.21688 29.3993C2.58007 29.2013 2.97116 29.0532 3.37841 28.9595V17.8431C2.96667 17.7496 2.57126 17.6006 2.20434 17.4006C0.0959504 16.2534 -0.623689 13.6959 0.588371 11.7C1.80043 9.70414 4.50196 9.02291 6.61034 10.1703C6.978 10.372 7.31314 10.6227 7.6055 10.9146L17.7741 5.35693C17.6543 4.9718 17.5936 4.57234 17.594 4.17084C17.594 1.86455 19.5633 0 22 0C24.4367 0 26.406 1.86439 26.406 4.17084C26.406 4.58541 26.3424 4.98549 26.224 5.36312ZM25.1649 7.07506L35.3548 12.6443C35.1926 13.1812 35.146 13.7436 35.218 14.2979C35.29 14.8522 35.4789 15.3871 35.7737 15.8708C36.394 16.8923 37.4044 17.5694 38.5259 17.8333V28.9637C38.4687 28.9769 38.4118 28.9914 38.3553 29.0067L25.0465 7.18651C25.0867 7.15006 25.1262 7.11297 25.1649 7.07522V7.07506ZM18.9563 7.18895L5.64767 29.0088C5.59013 28.993 5.53225 28.9784 5.47408 28.9649V17.8333C6.59556 17.5694 7.60601 16.8923 8.22631 15.8708C8.52166 15.3862 8.71081 14.8501 8.78248 14.2947C8.85415 13.7393 8.80687 13.1759 8.64345 12.6381L18.8305 7.0705C18.8715 7.11069 18.9135 7.15022 18.9563 7.18879V7.18895ZM23.2311 8.17736L36.5366 29.9923C36.2319 30.2676 35.9706 30.5831 35.761 30.929C35.5519 31.2728 35.3955 31.643 35.2966 32.0285H8.70378C8.60473 31.643 8.44825 31.2728 8.23903 30.929C8.02865 30.5855 7.7679 30.2719 7.46456 29.9977L20.7726 8.17833C21.1716 8.28709 21.5848 8.34208 22 8.34169C22.4275 8.34169 22.8405 8.28441 23.2311 8.17736ZM25.2584 39.8191L35.3822 34.286C35.3518 34.1957 35.3247 34.1044 35.3009 34.0123H8.69811C8.684 34.0664 8.66875 34.1202 8.65239 34.1737L18.8256 39.734C19.2365 39.3297 19.7295 39.0082 20.275 38.7889C20.8206 38.5696 21.4073 38.4571 22 38.4581C22.6134 38.4571 23.2202 38.5777 23.7814 38.8121C24.3426 39.0465 24.8457 39.3896 25.2584 39.8191V39.8191Z" fill="#E535AB"/>
</svg>
