<svg width="48" height="43" viewBox="0 0 48 43" fill="none" xmlns="http://www.w3.org/2000/svg">
<path d="M39.4656 13.9374C38.9547 13.7609 38.4396 13.5974 37.9206 13.4471C38.0077 13.0884 38.088 12.734 38.1593 12.3859C39.3289 6.66914 38.5642 2.06362 35.9526 0.547262C33.4485 -0.906417 29.3533 0.609374 25.2174 4.23357C24.8098 4.59139 24.4113 4.95952 24.0221 5.33761C23.7616 5.08619 23.4965 4.83965 23.2269 4.59812C18.8923 0.723026 14.5476 -0.910193 11.9387 0.610507C9.43687 2.06872 8.69606 6.39823 9.74906 11.8161C9.85382 12.3527 9.97211 12.8865 10.1038 13.417C9.48881 13.593 8.89537 13.7803 8.32744 13.9796C3.24544 15.7637 0 18.5595 0 21.4595C0 24.4546 3.48413 27.4588 8.77725 29.2805C9.20637 29.4275 9.63907 29.5638 10.0749 29.6892C9.93338 30.2606 9.80771 30.8359 9.69806 31.4144C8.69419 36.7382 9.47812 40.9654 11.9732 42.4144C14.5502 43.9107 18.8754 42.3728 23.0869 38.666C23.4284 38.3646 23.7624 38.0547 24.0885 37.7365C24.5099 38.1459 24.9426 38.5434 25.386 38.9286C29.4656 42.4631 33.4946 43.8903 35.9873 42.4374C38.5618 40.9367 39.3986 36.3956 38.3123 30.8706C38.2267 30.4378 38.1307 30.0071 38.0244 29.5789C38.3282 29.4883 38.6263 29.3951 38.9169 29.298C44.4197 27.4624 48 24.4947 48 21.4595C48 18.5489 44.6498 15.7342 39.4656 13.9374V13.9374ZM38.2721 27.3384C38.0096 27.4258 37.7404 27.5102 37.4659 27.5923C36.8584 25.6559 36.0386 23.597 35.0353 21.4695C35.9927 19.3928 36.7809 17.3601 37.3714 15.4363C37.8624 15.5794 38.3389 15.7303 38.7982 15.8894C43.2401 17.4292 45.9495 19.7054 45.9495 21.4595C45.9495 23.3277 43.0234 25.7531 38.2721 27.3384V27.3384ZM36.3008 31.2716C36.7811 33.7146 36.8496 35.9234 36.5314 37.6503C36.2456 39.2019 35.6707 40.2363 34.9597 40.6507C33.4472 41.5323 30.2122 40.3864 26.7234 37.3635C26.311 37.0054 25.9085 36.6359 25.5165 36.2553C26.8691 34.7659 28.2208 33.0346 29.5401 31.1115C31.8606 30.9042 34.0528 30.5652 36.0409 30.1025C36.1366 30.4901 36.2233 30.8799 36.3008 31.2716V31.2716ZM16.3643 40.4983C14.8864 41.0237 13.7092 41.0388 12.9977 40.6258C11.4836 39.7466 10.8542 36.3523 11.7127 31.7995C11.8148 31.2615 11.9317 30.7264 12.0632 30.195C14.0293 30.633 16.2056 30.9479 18.5316 31.1378C19.8598 33.0194 21.2505 34.7489 22.6521 36.2634C22.3542 36.5536 22.0493 36.8364 21.7376 37.1115C19.8752 38.7505 18.009 39.9135 16.3643 40.4983V40.4983ZM9.44062 27.3269C7.10006 26.5213 5.16713 25.4745 3.84225 24.3321C2.65163 23.3057 2.05069 22.2864 2.05069 21.4595C2.05069 19.6996 4.65637 17.4549 9.00244 15.9293C9.52988 15.7443 10.0819 15.5696 10.6547 15.4058C11.2554 17.3729 12.0433 19.4298 12.9941 21.5097C12.0309 23.6204 11.2318 25.7101 10.6252 27.7005C10.2274 27.5857 9.8324 27.4612 9.44062 27.3269V27.3269ZM11.7615 11.4195C10.8594 6.7777 11.4585 3.27622 12.9662 2.3974C14.5719 1.46138 18.1228 2.79593 21.8655 6.14204C22.1096 6.36073 22.3497 6.58385 22.5857 6.8113C21.1911 8.31916 19.8131 10.0358 18.4967 11.9064C16.2392 12.117 14.0782 12.4554 12.0915 12.9086C11.9691 12.4152 11.8591 11.9187 11.7615 11.4197V11.4195ZM32.4666 16.5674C31.9973 15.7512 31.5106 14.9453 31.0069 14.1503C32.5384 14.3453 34.0057 14.6042 35.3837 14.9206C34.9701 16.2557 34.4544 17.6514 33.8475 19.0824C33.4039 18.2349 32.9435 17.3964 32.4666 16.5674V16.5674ZM24.0231 8.28688C24.9688 9.31861 25.9161 10.4704 26.8478 11.7202C24.9578 11.6303 23.0646 11.63 21.1746 11.7191C22.1072 10.4808 23.0625 9.33051 24.0231 8.28688ZM15.5254 16.5815C15.0544 17.4039 14.6026 18.2372 14.1703 19.0807C13.5733 17.6548 13.0624 16.2527 12.6452 14.8987C14.0147 14.5902 15.4751 14.338 16.9969 14.1465C16.4875 14.9464 15.9969 15.7583 15.5254 16.5813V16.5815ZM17.0406 28.9193C15.4684 28.7426 13.986 28.5034 12.6169 28.2032C13.0406 26.8251 13.5628 25.3931 14.1727 23.9366C14.6068 24.7808 15.0605 25.6146 15.5334 26.4373C16.0198 27.2831 16.5234 28.1115 17.0406 28.9193ZM24.0797 34.7775C23.1077 33.7217 22.1383 32.5537 21.1916 31.2975C22.1108 31.3337 23.0477 31.3522 24 31.3522C24.9784 31.3522 25.9455 31.3302 26.8974 31.2875C25.9628 32.5664 25.0191 33.7361 24.0797 34.7775ZM33.8668 23.8622C34.5084 25.3348 35.0492 26.7592 35.4786 28.1137C34.0869 28.4336 32.5843 28.6911 31.0011 28.8823C31.5084 28.0725 31.9997 27.2526 32.4746 26.4231C32.9575 25.58 33.4217 24.7261 33.8668 23.8622V23.8622ZM30.6984 25.3916C29.9713 26.6633 29.2034 27.911 28.3958 29.1325C26.9328 29.2368 25.4666 29.2886 24 29.2878C22.5062 29.2878 21.0532 29.241 19.6541 29.1496C18.8254 27.931 18.0428 26.6812 17.3079 25.4029H17.3081C16.5767 24.1314 15.8935 22.8324 15.2601 21.5088C15.8919 20.1848 16.573 18.8852 17.3019 17.6127L17.3018 17.6129C18.0304 16.3401 18.8067 15.0957 19.6292 13.8822C21.0566 13.7735 22.5204 13.7168 23.9998 13.7168H24C25.4861 13.7168 26.9518 13.774 28.3789 13.8835C29.193 15.0952 29.9644 16.3353 30.6917 17.6018C31.423 18.8714 32.1131 20.1647 32.7609 21.4795C32.1198 22.8078 31.4318 24.1126 30.6984 25.3916V25.3916ZM34.9284 2.33585C36.5357 3.26923 37.1608 7.03313 36.1509 11.969C36.0864 12.2839 36.0141 12.6047 35.9353 12.93C33.9437 12.4671 31.7813 12.1229 29.5172 11.909C28.1983 10.0179 26.8316 8.29858 25.4597 6.81017C25.8192 6.46119 26.1874 6.12127 26.5637 5.7907C30.1074 2.68568 33.4194 1.45968 34.9284 2.33585V2.33585ZM24 17.1438C26.3672 17.1438 28.2863 19.076 28.2863 21.4595C28.2863 23.8429 26.3672 25.7752 24 25.7752C21.6328 25.7752 19.7137 23.8429 19.7137 21.4595C19.7137 19.076 21.6328 17.1438 24 17.1438V17.1438Z" fill="#00D8FF"/>
</svg>
