<svg width="43" height="43" viewBox="0 0 43 43" fill="none" xmlns="http://www.w3.org/2000/svg">
<path d="M29.7945 30.0309C31.3813 29.8578 32.5851 28.4169 32.5303 26.6876C32.4757 24.9585 31.1076 23.575 29.4661 23.575H29.3567C27.6602 23.6327 26.3471 25.1313 26.4018 26.9181C26.4566 27.7828 26.7848 28.5321 27.2773 29.0508C25.4169 32.9129 22.5715 35.7372 18.3034 38.1005C15.4032 39.7144 12.3937 40.2908 9.38424 39.8874C6.92182 39.5416 5.00664 38.3889 3.80264 36.4865C2.05174 33.6622 1.88763 30.6071 3.36508 27.5522C4.40481 25.3619 6.0462 23.7479 7.08593 22.9409C6.86706 22.1916 6.53869 20.9236 6.37458 20.0014C-1.55976 26.0536 -0.738896 34.2386 1.66877 38.1005C3.47443 40.9826 7.14068 42.7695 11.1899 42.7695C12.2842 42.7695 13.3785 42.6541 14.473 42.3661C21.4772 40.925 26.785 36.5442 29.7945 30.0309V30.0309ZM39.4251 22.8834C35.2664 17.7533 29.1379 14.929 22.1337 14.929H21.2583C20.7658 13.8915 19.7261 13.1997 18.577 13.1997H18.4675C16.7713 13.2574 15.4582 14.756 15.5128 16.543C15.5675 18.2721 16.9354 19.6555 18.577 19.6555H18.6864C19.8902 19.5978 20.9299 18.7908 21.3676 17.6957H22.3526C26.5113 17.6957 30.451 18.9637 34.008 21.4423C36.7438 23.3445 38.7138 25.8231 39.8081 28.8203C40.7383 31.2412 40.6835 33.6045 39.6986 35.622C38.1665 38.6769 35.5948 40.3485 32.2021 40.3485C30.0133 40.3485 27.934 39.6567 26.8396 39.138C26.2377 39.7144 25.1432 40.6366 24.3771 41.2132C26.7302 42.3659 29.1379 43 31.436 43C36.6891 43 40.5742 39.945 42.0516 36.8901C43.6384 33.5468 43.5289 27.7828 39.4251 22.8834V22.8834ZM11.6276 31.0105C11.6824 32.7398 13.0503 34.1231 14.6919 34.1231H14.8014C16.4977 34.0656 17.8109 32.5668 17.7561 30.78C17.7016 29.0507 16.3334 27.6674 14.6919 27.6674H14.5825C14.473 27.6674 14.3088 27.6674 14.1996 27.7249C11.956 23.8054 11.0258 19.5401 11.3542 14.9288C11.5729 11.4704 12.6674 8.473 14.5825 5.99439C16.1693 3.86167 19.2336 2.82416 21.313 2.76665C27.1132 2.6513 29.5754 10.2598 29.7397 13.3149C30.451 13.4877 31.6549 13.8913 32.4757 14.1795C31.819 4.84187 26.3471 0 21.0942 0C16.1693 0 11.6276 3.74667 9.8218 9.28015C7.30479 16.6581 8.94635 23.7479 12.0106 29.3391C11.7371 29.7425 11.5729 30.3766 11.6276 31.0107V31.0105Z" fill="#764ABC"/>
</svg>
