<svg width="44" height="36" viewBox="0 0 44 36" fill="none" xmlns="http://www.w3.org/2000/svg">
<path d="M39.7797 28.6472C34.9652 33.4503 27.9701 36 21.9556 36C13.5264 36 5.93146 31.7899 0.194969 24.793C-0.258716 24.2397 0.150947 23.4886 0.692331 23.9232C6.89718 28.7857 14.5508 31.7307 22.4678 31.7307C27.8092 31.7307 33.6774 30.2286 39.0774 27.1452C39.8822 26.6509 40.57 27.8568 39.7797 28.6472V28.6472ZM41.7846 25.5638C41.1701 24.4966 37.7163 25.0499 36.1505 25.3069C35.6822 25.3861 35.609 24.8326 36.0335 24.4176C38.7846 21.8084 43.3066 22.5597 43.8333 23.4292C44.3602 24.3187 43.6869 30.4261 41.1114 33.3514C40.7164 33.8061 40.3359 33.569 40.5115 32.976C41.0967 31.019 42.3992 26.6114 41.7846 25.5638V25.5638Z" fill="#FF9900"/>
<path d="M12.3066 12.9066C12.3066 13.638 12.3653 14.231 12.4677 14.6658C12.5976 15.1551 12.7541 15.6307 12.9359 16.0889C13.0091 16.247 13.0382 16.405 13.0382 16.5435C13.0382 16.741 12.9505 16.9388 12.7603 17.1365L11.8384 17.9666C11.7067 18.0853 11.575 18.1445 11.4578 18.1445C11.3115 18.1445 11.1651 18.0456 11.0187 17.8677C10.8216 17.5815 10.6452 17.2704 10.492 16.9388C10.3456 16.603 10.1992 16.2271 10.0384 15.7727C8.89689 17.5909 7.46264 18.5003 5.73594 18.5003C4.50678 18.5003 3.52621 18.0258 2.80909 17.0773C2.09213 16.1283 1.72632 14.8633 1.72632 13.2822C1.72632 11.6022 2.16533 10.2384 3.05803 9.21063C3.95055 8.18282 5.13603 7.66892 6.64331 7.66892C7.14084 7.66892 7.65305 7.72814 8.19444 7.827C8.73599 7.92587 9.29205 8.08396 9.87745 8.26186V6.81902C9.87745 5.31671 9.64319 4.26932 9.1895 3.65655C8.72132 3.04378 7.93099 2.74719 6.80421 2.74719C6.292 2.74719 5.76529 2.82647 5.22373 3.00438C4.68235 3.18205 4.15547 3.3996 3.64326 3.67637C3.40916 3.81464 3.2336 3.89368 3.13105 3.93332C3.02868 3.97296 2.95548 3.99255 2.89696 3.99255C2.69204 3.99255 2.58967 3.79482 2.58967 3.37978V2.4112C2.58967 2.09502 2.61901 1.85789 2.69204 1.71962C2.76524 1.58112 2.89696 1.44285 3.10187 1.30458C3.61408 0.948763 4.22866 0.652173 4.94562 0.41504C5.66292 0.158088 6.42389 0.0396387 7.22872 0.0396387C8.97026 0.0396387 10.2434 0.573128 11.0629 1.64057C11.8678 2.70779 12.2776 4.32854 12.2776 6.50284V12.9066H12.3069H12.3066ZM6.3652 15.911C6.84823 15.911 7.34576 15.7925 7.87247 15.5551C8.39935 15.318 8.86771 14.8832 9.2627 14.2902C9.49697 13.9148 9.67254 13.4998 9.76024 13.0253C9.84811 12.551 9.90663 11.9776 9.90663 11.3056V10.4756C9.46284 10.3297 9.01334 10.2175 8.56025 10.1396C8.10401 10.0613 7.6446 10.0217 7.18469 10.0209C6.20413 10.0209 5.48717 10.2778 5.00431 10.8116C4.52128 11.3453 4.28719 12.0963 4.28719 13.0845C4.28719 14.0134 4.46276 14.7052 4.82857 15.1797C5.17988 15.6738 5.69209 15.911 6.3652 15.911ZM18.1163 18.0456C17.8528 18.0456 17.6773 17.9864 17.5602 17.8479C17.4432 17.7294 17.3406 17.4527 17.2529 17.0773L13.8141 1.79866C13.726 1.40321 13.6822 1.14626 13.6822 1.00799C13.6822 0.691811 13.7992 0.51367 14.0335 0.51367H15.4676C15.7455 0.51367 15.9359 0.573128 16.0383 0.711397C16.1553 0.83008 16.2432 1.10685 16.3309 1.48225L18.7894 14.567L21.0723 1.48225C21.1455 1.08703 21.2334 0.83008 21.3503 0.711397C21.4675 0.592948 21.6724 0.513904 21.9358 0.513904H23.1065C23.3844 0.513904 23.5748 0.573128 23.6917 0.711397C23.8089 0.83008 23.9113 1.10685 23.9698 1.48225L26.2821 14.7251L28.8136 1.48225C28.9013 1.08703 29.0039 0.83008 29.1062 0.711397C29.2233 0.592948 29.4135 0.513904 29.677 0.513904H31.0379C31.2721 0.513904 31.4038 0.671992 31.4038 1.00799C31.4038 1.10685 31.3892 1.20571 31.3745 1.32416C31.3598 1.44285 31.3306 1.60094 31.2721 1.81848L27.7452 17.0969C27.6575 17.4923 27.5551 17.7493 27.4379 17.8677C27.3208 17.9864 27.1306 18.0654 26.882 18.0654H25.6235C25.3454 18.0654 25.1551 18.0062 25.0379 17.8677C24.9209 17.7294 24.8185 17.4725 24.76 17.0773L22.4916 4.32854L20.238 17.0572C20.1649 17.4527 20.0771 17.7096 19.96 17.8479C19.843 17.9864 19.6381 18.0456 19.3748 18.0456H18.1161H18.1163ZM36.9209 18.5793C36.1599 18.5793 35.399 18.4607 34.6673 18.2235C33.9355 17.9864 33.365 17.7292 32.9845 17.4331C32.7502 17.2549 32.5892 17.0574 32.5308 16.8795C32.4738 16.7051 32.4439 16.5167 32.4429 16.326V15.318C32.4429 14.903 32.56 14.7052 32.7796 14.7052C32.8692 14.7057 32.9582 14.7258 33.043 14.7647C33.1307 14.8043 33.2624 14.8832 33.4088 14.9622C33.9257 15.2693 34.4653 15.5012 35.0185 15.654C35.5917 15.8111 36.1751 15.8906 36.76 15.8911C37.6819 15.8911 38.399 15.6738 38.8965 15.239C39.3941 14.8041 39.6575 14.1718 39.6575 13.3613C39.6575 12.808 39.5258 12.3533 39.2624 11.9776C38.9989 11.6022 38.5014 11.2662 37.7844 10.9498L35.6624 10.0605C34.5941 9.60585 33.804 8.93386 33.321 8.04432C32.8381 7.1746 32.5893 6.20625 32.5893 5.17844C32.5893 4.34836 32.721 3.61691 32.9845 2.98433C33.2478 2.35197 33.5991 1.79866 34.0381 1.3638C34.4771 0.909124 34.9746 0.573128 35.56 0.335996C36.1453 0.0988635 36.7598 0 37.4038 0C37.7257 0 38.0624 0.0198193 38.3843 0.0790442C38.721 0.138269 39.0283 0.217313 39.3356 0.296357C39.6282 0.395221 39.9063 0.494084 40.1697 0.612767C40.4332 0.731217 40.6379 0.8499 40.7843 0.968349C40.9892 1.12667 41.1354 1.28476 41.2233 1.46267C41.3112 1.62075 41.355 1.83807 41.355 2.11484V3.04378C41.355 3.45882 41.238 3.67637 41.0184 3.67637C40.9014 3.67637 40.7111 3.59709 40.4625 3.439C39.6282 2.9251 38.6916 2.66815 37.6527 2.66815C36.8185 2.66815 36.1599 2.84606 35.7062 3.22169C35.2527 3.59709 35.0185 4.17045 35.0185 4.98071C35.0185 5.53426 35.1649 6.00852 35.4575 6.38416C35.7503 6.75956 36.2917 7.13519 37.0673 7.47119L39.1453 8.36073C40.1989 8.81541 40.9599 9.44776 41.4136 10.258C41.8672 11.0685 42.0868 11.9975 42.0868 13.0253C42.0868 13.8752 41.9549 14.646 41.7062 15.318C41.4429 15.99 41.0916 16.583 40.6379 17.0574C40.1842 17.5515 39.6428 17.9073 39.0136 18.1643C38.355 18.4411 37.6672 18.5793 36.9209 18.5793Z" fill="#252F3E"/>
</svg>
