<svg width="38" height="27" viewBox="0 0 38 27" fill="none" xmlns="http://www.w3.org/2000/svg">
<path d="M25.2718 7.45444L28.5749 4.53491L28.7951 3.30559C22.7758 -1.53205 13.2074 -0.983517 7.7811 4.45016C6.27402 5.95932 5.15584 7.84082 4.55957 9.78372L5.74262 9.63639L12.3488 8.6734L12.8588 8.2125C15.7975 5.36001 20.7661 4.97626 24.1591 7.40328L25.2718 7.45444V7.45444Z" fill="#EA4335"/>
<path d="M33.2805 9.69777C32.5213 7.22655 30.9624 5.00495 28.7951 3.30557L24.1591 7.40313C25.1253 8.1009 25.8996 8.98349 26.4236 9.98431C26.9476 10.9851 27.2077 12.0781 27.1841 13.1807V13.908C29.4626 13.908 31.3102 15.5408 31.3102 17.5548C31.3102 19.5689 29.4628 21.1608 27.1841 21.1608H18.9205L18.1091 21.9393V26.3134L18.9205 26.9997H27.184C33.1111 27.0405 37.9536 22.8678 37.9997 17.629C38.0135 16.0657 37.5899 14.5235 36.7665 13.1398C35.9432 11.7561 34.7456 10.5737 33.2805 9.69777" fill="#4285F4"/>
<path d="M10.6682 26.9998H18.9202V21.1608H10.6682C10.084 21.1607 9.50679 21.0489 8.97613 20.833L7.80541 21.1505L4.47908 24.0701L4.18933 25.0638C6.05474 26.3087 8.33073 27.0088 10.6682 26.9998Z" fill="#34A853"/>
<path d="M10.6682 8.05875C4.74113 8.0901 -0.0351333 12.3624 0.000194723 17.6013C0.00993918 19.0449 0.392365 20.4675 1.11833 21.7607C1.8443 23.054 2.89466 24.1837 4.18939 25.0638L8.97619 20.8332C6.89956 20.0037 5.97657 17.8437 6.91485 16.0083C7.85297 14.1728 10.2971 13.357 12.3736 14.1862C13.2887 14.5516 14.0216 15.1994 14.435 16.0083L19.2218 11.7774C18.2171 10.6165 16.9222 9.67672 15.4383 9.03161C13.9545 8.3865 12.3219 8.05353 10.6682 8.05875" fill="#FBBC05"/>
</svg>
