<svg width="39" height="40" viewBox="0 0 39 40" fill="none" xmlns="http://www.w3.org/2000/svg">
<path d="M19.5 40C18.9067 40.0002 18.3238 39.8583 17.81 39.5886L12.4319 36.6928C11.6293 36.2842 12.0204 36.1399 12.2859 36.0557C13.1395 35.8158 13.9568 35.4799 14.7189 35.0556C14.7826 35.0288 14.8529 35.0172 14.923 35.022C14.9931 35.0267 15.0607 35.0476 15.1194 35.0828L19.2518 37.3157C19.3288 37.3527 19.4145 37.3721 19.5016 37.3721C19.5886 37.3721 19.6744 37.3527 19.7513 37.3157L35.8665 28.8556C35.9419 28.8145 36.0043 28.7563 36.0475 28.6866C36.0907 28.617 36.1133 28.5384 36.1131 28.4584V11.5353C36.1131 11.4541 36.0902 11.3742 36.0464 11.3034C36.0027 11.2326 35.9396 11.1732 35.8633 11.131L19.7482 2.67805C19.6722 2.63913 19.5864 2.61868 19.4992 2.61868C19.412 2.61868 19.3263 2.63913 19.2503 2.67805L3.14451 11.1339C3.06769 11.1752 3.0039 11.2339 2.95932 11.3042C2.91474 11.3745 2.89089 11.4541 2.89006 11.5353V28.4513C2.89028 28.531 2.91382 28.6093 2.95825 28.6781C3.00269 28.7469 3.06643 28.8037 3.14294 28.8427L7.56284 31.1627C9.95812 32.2513 11.4251 30.9684 11.4251 29.6799V12.9782C11.4251 12.8645 11.4748 12.7555 11.5632 12.6751C11.6515 12.5948 11.7714 12.5496 11.8963 12.5496H13.9382C14.0632 12.5496 14.183 12.5948 14.2714 12.6751C14.3598 12.7555 14.4094 12.8645 14.4094 12.9782V29.6813C14.4094 32.5885 12.6691 34.2528 9.6377 34.2528C8.32992 34.2735 7.04264 33.9554 5.92619 33.3356L1.69006 31.1256C1.1758 30.8532 0.749095 30.4629 0.452536 29.9936C0.155977 29.5243 -5.69317e-05 28.9925 1.11704e-05 28.4513V11.5353C-0.00151739 10.9932 0.153857 10.4603 0.45052 9.99009C0.747183 9.51991 1.17468 9.12902 1.69006 8.85671L17.8068 0.393736C18.326 0.1354 18.9082 0 19.5 0C20.0918 0 20.674 0.1354 21.1932 0.393736L37.3084 8.85671C37.8226 9.12856 38.2494 9.51832 38.5462 9.98708C38.843 10.4558 38.9995 10.9872 39 11.5282V28.4513C38.9991 28.9925 38.8425 29.5242 38.5458 29.9933C38.249 30.4625 37.8224 30.8528 37.3084 31.1256L21.1932 39.5886C20.6784 39.8587 20.0944 40.0006 19.5 40V40Z" fill="#83CD29"/>
<path d="M19.5 40C18.9067 40.0002 18.3238 39.8583 17.81 39.5886L12.4319 36.6928C11.6293 36.2842 12.0204 36.1399 12.2859 36.0557C13.1395 35.8158 13.9568 35.4799 14.7189 35.0556C14.7826 35.0288 14.8529 35.0172 14.923 35.022C14.9931 35.0267 15.0607 35.0476 15.1194 35.0828L19.2518 37.3157C19.3288 37.3527 19.4145 37.3721 19.5016 37.3721C19.5886 37.3721 19.6744 37.3527 19.7513 37.3157L35.8665 28.8556C35.9419 28.8145 36.0043 28.7563 36.0475 28.6866C36.0907 28.617 36.1133 28.5384 36.1131 28.4584V11.5353C36.1131 11.4541 36.0902 11.3742 36.0464 11.3034C36.0027 11.2326 35.9396 11.1732 35.8633 11.131L19.7482 2.67805C19.6722 2.63913 19.5864 2.61868 19.4992 2.61868C19.412 2.61868 19.3263 2.63913 19.2503 2.67805L3.14451 11.1339C3.06769 11.1752 3.0039 11.2339 2.95932 11.3042C2.91474 11.3745 2.89089 11.4541 2.89006 11.5353V28.4513C2.89028 28.531 2.91382 28.6093 2.95825 28.6781C3.00269 28.7469 3.06643 28.8037 3.14294 28.8427L7.56284 31.1627C9.95812 32.2513 11.4251 30.9684 11.4251 29.6799V12.9782C11.4251 12.8645 11.4748 12.7555 11.5632 12.6751C11.6515 12.5948 11.7714 12.5496 11.8963 12.5496H13.9382C14.0632 12.5496 14.183 12.5948 14.2714 12.6751C14.3598 12.7555 14.4094 12.8645 14.4094 12.9782V29.6813C14.4094 32.5885 12.6691 34.2528 9.6377 34.2528C8.32992 34.2735 7.04264 33.9554 5.92619 33.3356L1.69006 31.1256C1.1758 30.8532 0.749095 30.4629 0.452536 29.9936C0.155977 29.5243 -5.69317e-05 28.9925 1.11704e-05 28.4513V11.5353C-0.00151739 10.9932 0.153857 10.4603 0.45052 9.99009C0.747183 9.51991 1.17468 9.12902 1.69006 8.85671L17.8068 0.393736C18.326 0.1354 18.9082 0 19.5 0C20.0918 0 20.674 0.1354 21.1932 0.393736L37.3084 8.85671C37.8226 9.12856 38.2494 9.51832 38.5462 9.98708C38.843 10.4558 38.9995 10.9872 39 11.5282V28.4513C38.9991 28.9925 38.8425 29.5242 38.5458 29.9933C38.249 30.4625 37.8224 30.8528 37.3084 31.1256L21.1932 39.5886C20.6784 39.8587 20.0944 40.0006 19.5 40V40Z" fill="#83CD29"/>
<path d="M16.4434 22.7898C16.4434 22.6761 16.493 22.5671 16.5814 22.4867C16.6697 22.4064 16.7896 22.3612 16.9146 22.3612H18.9989C19.1102 22.3615 19.2179 22.3977 19.3027 22.4634C19.3875 22.529 19.444 22.6199 19.4622 22.7198C19.7763 24.6498 20.7188 25.6227 24.98 25.6227C28.3742 25.6227 29.8208 24.9241 29.8208 23.2855C29.8208 22.3412 29.4109 21.6398 24.135 21.1698C19.7245 20.7726 16.9978 19.884 16.9978 16.6783C16.9978 13.7211 19.7386 11.9568 24.3329 11.9568C29.4957 11.9568 32.0512 13.5868 32.3748 17.084C32.3797 17.1424 32.3714 17.2011 32.3505 17.2564C32.3295 17.3118 32.2963 17.3627 32.2529 17.4059C32.2095 17.4492 32.1568 17.4838 32.098 17.5078C32.0393 17.5318 31.9758 17.5446 31.9114 17.5454H29.813C29.7077 17.5441 29.606 17.5107 29.524 17.4507C29.442 17.3906 29.3845 17.3073 29.3606 17.214C28.8596 15.184 27.6329 14.5354 24.3345 14.5354C20.6277 14.5354 20.1973 15.7097 20.1973 16.5897C20.1973 17.6554 20.7062 17.9669 25.7104 18.5683C30.6627 19.164 33.0156 20.0069 33.0156 23.1727C33.0156 26.367 30.0879 28.1956 24.9816 28.1956C17.9214 28.2042 16.4434 25.2598 16.4434 22.7898V22.7898Z" fill="#83CD29"/>
<path d="M16.4434 22.7898C16.4434 22.6761 16.493 22.5671 16.5814 22.4867C16.6697 22.4064 16.7896 22.3612 16.9146 22.3612H18.9989C19.1102 22.3615 19.2179 22.3977 19.3027 22.4634C19.3875 22.529 19.444 22.6199 19.4622 22.7198C19.7763 24.6498 20.7188 25.6227 24.98 25.6227C28.3742 25.6227 29.8208 24.9241 29.8208 23.2855C29.8208 22.3412 29.4109 21.6398 24.135 21.1698C19.7245 20.7726 16.9978 19.884 16.9978 16.6783C16.9978 13.7211 19.7386 11.9568 24.3329 11.9568C29.4957 11.9568 32.0512 13.5868 32.3748 17.084C32.3797 17.1424 32.3714 17.2011 32.3505 17.2564C32.3295 17.3118 32.2963 17.3627 32.2529 17.4059C32.2095 17.4492 32.1568 17.4838 32.098 17.5078C32.0393 17.5318 31.9758 17.5446 31.9114 17.5454H29.813C29.7077 17.5441 29.606 17.5107 29.524 17.4507C29.442 17.3906 29.3845 17.3073 29.3606 17.214C28.8596 15.184 27.6329 14.5354 24.3345 14.5354C20.6277 14.5354 20.1973 15.7097 20.1973 16.5897C20.1973 17.6554 20.7062 17.9669 25.7104 18.5683C30.6627 19.164 33.0156 20.0069 33.0156 23.1727C33.0156 26.367 30.0879 28.1956 24.9816 28.1956C17.9214 28.2042 16.4434 25.2598 16.4434 22.7898V22.7898Z" fill="#83CD29"/>
</svg>
