<svg width="34" height="37" viewBox="0 0 34 37" fill="none" xmlns="http://www.w3.org/2000/svg">
<path d="M3.369 37.8015L0 0H37.032L33.6585 37.7955L18.4935 42L3.369 37.8015Z" fill="#1572B6"/>
<path d="M18.516 38.787L30.771 35.3895L33.654 3.09149H18.516V38.787Z" fill="#33A9DC"/>
<path d="M18.516 16.7865H24.651L25.074 12.039H18.516V7.4025H30.141L30.03 8.646L28.8915 21.423H18.516V16.7865Z" fill="white"/>
<path d="M18.5445 28.827L18.5235 28.833L13.3605 27.438L13.0305 23.7405H8.37598L9.02548 31.02L18.522 33.657L18.5445 33.651V28.827Z" fill="#EBEBEB"/>
<path d="M24.2565 21.2265L23.6985 27.435L18.528 28.83V33.654L28.032 31.02L28.1025 30.237L28.908 21.2265H24.2565Z" fill="white"/>
<path d="M18.5325 7.4025V12.039H7.33347L7.24047 10.9965L7.02897 8.646L6.91797 7.4025H18.5325ZM18.516 16.7865V21.423H13.4175L13.3245 20.3805L13.1145 18.03L13.0035 16.7865H18.516Z" fill="#EBEBEB"/>
</svg>
