<svg width="48" height="48" viewBox="0 0 48 48" fill="none" xmlns="http://www.w3.org/2000/svg">
<path d="M0 24V48H48V0H0V24Z" fill="#007ACC"/>
<path d="M10.6148 24.1594L10.5996 26.1249H16.8471V43.8774H21.2661V26.1249H27.5138V24.1974C27.5138 23.1306 27.4909 22.2392 27.4605 22.2163C27.4377 22.1859 23.6355 22.1706 19.0262 22.1782L10.6375 22.2011L10.6148 24.1592V24.1594ZM38.7314 22.1452C39.9503 22.4499 40.8799 22.9909 41.7332 23.8747C42.1752 24.3472 42.8303 25.2081 42.8837 25.4137C42.8987 25.4747 40.8113 26.8766 39.5466 27.6615C39.5009 27.6919 39.3179 27.4939 39.1122 27.189C38.4951 26.2899 37.8475 25.9014 36.8569 25.8328C35.4019 25.7338 34.4646 26.4956 34.4723 27.768C34.4723 28.1415 34.5255 28.3624 34.678 28.6671C34.998 29.3301 35.5922 29.7262 37.459 30.5338C40.8951 32.0119 42.3655 32.9871 43.2799 34.3738C44.3009 35.9205 44.5294 38.3891 43.836 40.2253C43.0742 42.2214 41.1848 43.5776 38.5255 44.0271C37.7027 44.1718 35.7524 44.1489 34.8685 43.989C32.941 43.6462 31.1123 42.6937 29.9847 41.4442C29.5427 40.9567 28.6817 39.6842 28.7352 39.5929C28.758 39.5623 28.956 39.4404 29.1769 39.3109C29.3903 39.189 30.198 38.7242 30.9599 38.2824L32.3389 37.4824L32.6284 37.9091C33.0323 38.526 33.916 39.3718 34.4494 39.6538C35.9807 40.4614 38.0837 40.3472 39.1199 39.4176C39.5618 39.0139 39.7446 38.5948 39.7446 37.9776C39.7446 37.4214 39.676 37.1777 39.3865 36.7586C39.0134 36.2252 38.2514 35.7757 36.0874 34.8386C33.6113 33.7717 32.5446 33.1091 31.5694 32.0576C31.0056 31.4482 30.4722 30.4729 30.2513 29.6576C30.0685 28.9794 30.0225 27.2805 30.1675 26.5948C30.678 24.2023 32.4837 22.5337 35.0894 22.0386C35.935 21.8786 37.9007 21.9396 38.7314 22.1452V22.1452Z" fill="white"/>
</svg>
