<svg width="48" height="22" viewBox="0 0 48 22" fill="none" xmlns="http://www.w3.org/2000/svg">
<path d="M37.856 15.088C37.428 15.268 37.002 15.358 36.57 15.358C35.886 15.358 35.27 15.24 34.724 15.002C34.198 14.779 33.7271 14.4438 33.344 14.02C32.97 13.602 32.68 13.114 32.48 12.55C32.28 11.986 32.182 11.378 32.182 10.728C32.182 10.058 32.282 9.442 32.48 8.868C32.68 8.294 32.964 7.796 33.338 7.374C33.7189 6.94277 34.19 6.60068 34.718 6.372C35.3007 6.12126 35.9297 5.99653 36.564 6.006C37.024 6.006 37.466 6.078 37.892 6.214C38.32 6.352 38.708 6.556 39.054 6.822C39.4 7.088 39.686 7.42 39.908 7.814C40.1385 8.23083 40.2789 8.69145 40.32 9.166H38.45C38.332 8.668 38.108 8.292 37.776 8.042C37.4246 7.78505 36.9971 7.65336 36.562 7.668C36.12 7.668 35.746 7.754 35.438 7.924C35.13 8.094 34.878 8.322 34.688 8.612C34.498 8.902 34.356 9.228 34.27 9.594C34.184 9.96 34.138 10.338 34.138 10.732C34.138 11.106 34.18 11.472 34.27 11.828C34.356 12.184 34.498 12.502 34.688 12.786C34.878 13.07 35.13 13.298 35.438 13.47C35.746 13.642 36.122 13.726 36.562 13.726C37.212 13.726 37.716 13.56 38.07 13.232C38.426 12.904 38.63 12.43 38.692 11.804H36.718V10.33H40.462V15.156H39.214L39.014 14.146C38.7172 14.5561 38.3179 14.8809 37.856 15.088V15.088ZM43.648 6.23V13.494H48V15.15H41.69V6.23H43.648V6.23ZM5.57 10.728C5.57 9.31 6.256 7.976 7.466 6.804L9.684 15.246H11.212L13.362 7.616L15.482 15.246H17.014L19.656 5.534H17.936L16.214 12.984L14.136 5.532H12.56L10.482 12.982L8.802 5.718C11.78 3.668 16.538 2.338 21.898 2.338C26.922 2.338 31.426 3.396 34.42 5.228C31.156 2.158 25.29 0.004 18.59 0C8.322 0 0 4.802 0 10.728C0 16.654 8.322 21.462 18.586 21.462C25.262 21.462 31.108 19.312 34.386 16.262C31.392 18.084 26.904 19.118 21.898 19.118C12.878 19.116 5.57 15.364 5.57 10.728V10.728ZM23.958 9.622C23.7312 9.29552 23.4258 9.0314 23.07 8.854C22.6821 8.66816 22.2561 8.57569 21.826 8.584C21.304 8.584 20.834 8.678 20.426 8.864C20.0426 9.03972 19.7071 9.3052 19.448 9.638C18.96 10.26 18.704 11.138 18.704 12.176C18.704 12.636 18.77 13.072 18.898 13.462C19.0181 13.8396 19.2118 14.1897 19.468 14.492C19.99 15.1 20.734 15.422 21.622 15.422C22.088 15.422 22.466 15.374 22.784 15.274C23.06 15.188 23.244 15.074 23.396 14.976C23.768 14.7281 24.0731 14.3922 24.284 13.998C24.464 13.666 24.554 13.352 24.574 13.192L24.588 13.082H23.322L23.318 13.172C23.284 13.584 22.744 14.32 21.78 14.32C20.404 14.32 20.076 13.324 20.052 12.446H24.664V12.346C24.6703 11.8303 24.6132 11.3158 24.494 10.814C24.3879 10.3879 24.2064 9.98417 23.958 9.622V9.622ZM21.68 9.722C22.7 9.722 23.246 10.272 23.346 11.402H20.044C20.094 10.486 20.82 9.722 21.68 9.722ZM31.036 10.552C30.9227 10.1784 30.7409 9.82915 30.5 9.522C30.2645 9.22849 29.9657 8.99194 29.626 8.83C29.2589 8.65988 28.8585 8.57379 28.454 8.578C28.0845 8.57609 27.7201 8.66394 27.392 8.834C27.1256 8.97156 26.8901 9.16213 26.7 9.394V6.414H25.438V15.24H26.638V14.638C26.7567 14.7962 26.899 14.9351 27.06 15.05C27.402 15.296 27.824 15.42 28.312 15.42C28.838 15.42 29.314 15.302 29.712 15.068C30.068 14.86 30.372 14.56 30.608 14.18C30.8275 13.819 30.9863 13.4244 31.078 13.012C31.1699 12.6166 31.2162 12.2119 31.216 11.806C31.2235 11.3811 31.1627 10.9577 31.036 10.552V10.552ZM29.902 11.986C29.902 12.678 29.764 13.258 29.498 13.666C29.3718 13.8717 29.1934 14.0402 28.9808 14.1544C28.7682 14.2686 28.5292 14.3244 28.288 14.316C27.534 14.316 26.65 13.79 26.65 12.3C26.65 11.588 26.74 11.038 26.92 10.62C27.18 10.018 27.622 9.728 28.262 9.728C28.946 9.728 29.406 9.994 29.662 10.548C29.874 11.002 29.902 11.558 29.902 11.986V11.986Z" fill="#699BF7"/>
</svg>
